<?xml version="1.0" standalone="no"?>
<!DOCTYPE svg PUBLIC "-//W3C//DTD SVG 20010904//EN"
 "http://www.w3.org/TR/2001/REC-SVG-20010904/DTD/svg10.dtd">
<svg version="1.0" xmlns="http://www.w3.org/2000/svg"
 width="2500.000000pt" height="952.000000pt" viewBox="0 0 2500.000000 952.000000"
 preserveAspectRatio="xMidYMid meet">

<g transform="translate(0.000000,952.000000) scale(0.100000,-0.100000)"
fill="#000000" stroke="none">
<path d="M0 9498 c0 -18 15 -30 68 -55 37 -18 75 -33 85 -33 9 0 17 -4 17 -10
0 -5 9 -10 20 -10 11 0 20 -4 20 -10 0 -5 9 -10 19 -10 11 0 21 -3 23 -7 2 -5
21 -17 43 -28 l40 -21 3 -79 c2 -44 7 -84 12 -89 13 -13 13 -403 0 -411 -6 -3
-10 -42 -10 -85 0 -43 -4 -81 -9 -85 -5 -3 -7 -27 -4 -54 3 -30 1 -51 -6 -55
-6 -4 -11 -22 -11 -41 0 -19 -4 -37 -10 -40 -5 -3 -10 -18 -10 -32 0 -27 -16
-84 -31 -115 -5 -10 -9 -29 -9 -42 0 -14 -5 -28 -10 -31 -6 -3 -10 -17 -10
-30 0 -13 -5 -27 -10 -30 -6 -3 -10 -15 -10 -26 0 -10 -4 -19 -10 -19 -5 0
-10 -9 -10 -20 0 -11 -4 -28 -9 -38 -5 -9 -14 -29 -20 -44 -6 -16 -15 -38 -20
-50 -25 -60 -66 -143 -73 -146 -4 -2 -8 -12 -8 -23 0 -10 -4 -19 -10 -19 -5 0
-10 -7 -10 -15 0 -9 -9 -25 -20 -37 -21 -23 -29 -98 -10 -98 6 0 10 8 10 19 0
10 6 24 14 30 7 6 46 78 86 159 39 81 76 155 81 164 5 10 9 25 9 33 0 8 5 15
10 15 6 0 10 8 10 18 0 11 8 34 17 53 10 19 16 41 15 51 -2 9 2 19 8 23 5 3
10 17 10 30 0 13 4 27 10 30 5 3 10 21 10 40 0 19 5 37 10 40 6 3 10 22 10 41
0 19 5 34 10 34 6 0 10 18 10 39 0 22 5 43 10 46 6 3 10 33 10 66 0 33 4 59
10 59 6 0 10 31 10 74 0 41 5 78 10 81 6 4 10 97 10 245 0 148 -4 241 -10 245
-12 8 -13 92 -1 99 4 3 55 -17 112 -45 57 -28 131 -64 163 -80 32 -16 64 -29
69 -29 6 0 53 -20 104 -45 50 -25 101 -45 112 -45 24 0 55 -40 42 -53 -6 -6
-22 -3 -42 7 -18 9 -42 16 -53 16 -16 0 -13 -5 14 -17 19 -10 37 -21 38 -25 2
-4 12 -8 23 -8 12 0 19 -7 19 -19 0 -11 5 -23 10 -26 6 -3 10 -22 10 -41 0
-31 -3 -34 -29 -34 -17 0 -33 -5 -36 -10 -4 -6 -15 -8 -26 -5 -13 4 -19 2 -19
-9 0 -12 10 -13 55 -9 l55 6 0 -46 c0 -25 5 -49 10 -52 6 -4 10 -87 10 -216 0
-133 -4 -209 -10 -209 -6 0 -10 -31 -10 -74 0 -41 -5 -78 -10 -81 -6 -3 -10
-28 -10 -55 0 -27 -4 -52 -10 -55 -5 -3 -10 -21 -10 -40 0 -19 -5 -37 -10 -40
-6 -3 -10 -17 -10 -30 0 -13 -5 -27 -11 -30 -5 -4 -8 -12 -6 -18 2 -7 -1 -21
-6 -32 -6 -11 -11 -24 -12 -30 0 -18 -85 -183 -100 -195 -8 -7 -15 -18 -15
-25 0 -6 -9 -20 -20 -30 -11 -10 -20 -23 -20 -30 0 -19 -65 -75 -87 -75 -12 0
-25 -4 -28 -10 -3 -5 -26 -10 -50 -10 -24 0 -47 -4 -50 -10 -3 -5 -19 -10 -35
-10 -16 0 -32 -5 -36 -11 -4 -7 -20 -8 -41 -4 -22 4 -40 2 -50 -7 -9 -7 -28
-11 -43 -10 -16 2 -31 -1 -35 -7 -3 -6 -24 -11 -45 -11 -21 0 -42 -4 -45 -10
-3 -5 -26 -10 -50 -10 -24 0 -47 -4 -50 -10 -3 -5 -19 -10 -35 -10 -41 0 -80
-20 -80 -42 0 -12 7 -18 24 -18 14 0 28 5 31 10 3 6 24 10 45 10 21 0 42 5 45
10 3 6 21 10 40 10 19 0 37 5 40 10 3 6 26 10 51 10 24 0 44 5 44 10 0 6 20
10 44 10 25 0 48 5 51 10 3 6 21 10 40 10 19 0 37 5 40 10 3 6 26 10 51 10 24
0 44 5 44 10 0 6 15 10 33 10 18 0 38 5 45 12 9 9 23 6 59 -13 26 -13 50 -27
51 -31 2 -5 12 -8 23 -8 10 0 19 -4 19 -10 0 -5 8 -10 18 -10 9 0 23 -9 30
-20 7 -11 17 -20 23 -20 7 0 31 -17 54 -37 23 -21 61 -53 84 -71 22 -18 41
-39 41 -46 0 -6 16 -27 35 -46 19 -19 35 -40 35 -47 0 -7 9 -18 20 -25 11 -7
20 -21 20 -30 0 -10 5 -18 10 -18 6 0 10 -6 10 -13 0 -8 9 -22 20 -32 11 -10
20 -26 20 -36 0 -10 9 -34 20 -54 11 -20 20 -44 20 -55 0 -10 4 -22 10 -25 24
-15 -6 -95 -35 -95 -6 0 -20 -9 -30 -20 -10 -11 -22 -20 -27 -20 -4 0 -31 -16
-58 -35 -27 -19 -53 -35 -58 -35 -4 0 -14 -9 -22 -20 -8 -11 -21 -20 -30 -20
-9 0 -22 -9 -30 -20 -8 -11 -21 -20 -30 -20 -8 0 -21 -9 -28 -20 -7 -11 -18
-20 -26 -20 -7 0 -21 -9 -31 -20 -10 -11 -22 -20 -27 -20 -6 0 -21 -9 -35 -20
-30 -23 -43 -18 -43 15 0 13 -4 27 -10 30 -5 3 -10 17 -10 31 0 13 -4 24 -10
24 -5 0 -10 14 -10 30 0 17 -4 30 -10 30 -5 0 -10 9 -10 19 0 11 -4 21 -8 23
-9 4 -62 110 -62 125 0 5 -13 22 -30 38 -16 16 -30 34 -30 40 0 6 -16 27 -36
46 -20 18 -40 44 -45 57 -5 12 -17 25 -26 28 -10 4 -38 26 -63 50 -57 56 -97
83 -190 130 -41 21 -76 42 -78 46 -2 4 -12 8 -23 8 -10 0 -19 3 -19 8 0 8 -71
32 -95 32 -8 0 -15 -9 -15 -20 0 -13 7 -20 20 -20 11 0 20 -4 20 -10 0 -5 8
-10 18 -10 10 0 49 -16 88 -35 38 -19 72 -35 76 -35 4 0 28 -15 53 -32 26 -18
56 -38 67 -45 30 -17 208 -196 208 -209 0 -6 9 -19 20 -29 11 -10 20 -24 20
-30 0 -7 6 -18 14 -25 19 -15 106 -190 106 -213 0 -9 5 -17 11 -17 6 0 9 -8 7
-18 -3 -10 1 -27 8 -37 31 -43 1 -92 -77 -128 -20 -9 -42 -23 -49 -32 -7 -8
-16 -15 -20 -15 -13 0 -90 -53 -90 -62 0 -4 -8 -8 -18 -8 -10 0 -24 -9 -32
-20 -8 -11 -21 -20 -30 -20 -8 0 -21 -9 -28 -20 -7 -11 -17 -20 -24 -20 -6 0
-20 -7 -30 -17 -19 -17 -49 -36 -83 -52 -12 -5 -27 -16 -34 -25 -7 -9 -19 -16
-26 -16 -6 0 -20 -9 -30 -20 -10 -12 -25 -18 -32 -16 -7 3 -13 -1 -13 -10 0
-10 -8 -14 -22 -12 -19 2 -24 10 -26 43 -1 22 -6 47 -9 55 -3 8 -5 19 -4 24 1
4 -4 14 -10 22 -6 8 -13 22 -14 32 -1 9 -8 31 -16 47 -14 30 -14 29 -17 -35
-2 -39 1 -66 7 -68 6 -2 11 -17 11 -33 0 -16 5 -29 10 -29 6 0 10 -27 10 -60
0 -53 -2 -60 -20 -60 -15 0 -20 -7 -20 -25 0 -14 5 -25 10 -25 6 0 10 3 10 8
0 27 189 47 205 22 3 -5 21 -10 40 -10 19 0 37 -4 40 -10 3 -5 15 -10 25 -10
11 0 35 -9 55 -20 20 -11 43 -20 51 -20 8 0 27 -13 41 -30 13 -16 31 -30 38
-30 7 0 31 -21 54 -47 53 -60 50 -56 88 -133 36 -74 43 -101 50 -185 3 -33 9
-64 14 -70 12 -12 12 -95 -1 -95 -5 0 -10 -14 -10 -32 0 -33 1 -32 -227 -276
-46 -49 -83 -93 -83 -98 0 -5 -37 -47 -83 -92 l-83 -82 -104 52 c-58 29 -106
56 -108 60 -8 17 -22 7 -22 -15 0 -29 18 -47 45 -47 12 0 30 -9 40 -20 10 -11
26 -20 35 -20 21 0 77 -27 86 -42 3 -5 -14 -31 -40 -57 -25 -26 -46 -51 -46
-56 0 -5 -27 -34 -60 -66 -48 -46 -60 -63 -60 -88 0 -17 5 -31 10 -31 6 0 10
5 10 11 0 6 38 51 85 98 47 48 85 92 85 97 0 5 23 32 51 59 28 28 64 68 80 89
16 22 61 73 99 113 39 40 70 76 70 81 0 4 27 34 60 65 33 32 71 74 84 95 13
20 56 68 95 107 39 38 71 74 71 80 0 6 34 44 75 85 41 41 75 78 75 82 0 4 25
33 55 65 30 32 55 62 55 67 0 5 38 47 85 92 47 46 85 87 85 91 0 16 129 143
145 143 12 0 15 6 10 19 -4 15 11 35 65 87 38 37 70 72 70 78 0 7 34 45 75 86
41 41 75 79 75 85 0 6 27 37 61 70 33 33 65 70 70 83 5 13 15 22 22 19 9 -3
12 -121 12 -538 0 -294 -4 -543 -9 -554 -4 -11 -16 -29 -26 -40 -9 -11 -26
-45 -37 -75 -12 -30 -32 -84 -46 -120 -28 -74 -44 -185 -27 -195 5 -3 10 -14
10 -24 0 -10 7 -24 15 -31 21 -18 64 -109 54 -116 -5 -3 -34 22 -65 55 -31 34
-63 61 -71 61 -7 0 -23 9 -35 20 -12 11 -30 20 -40 20 -10 0 -29 7 -43 16 -30
20 -130 31 -139 15 -4 -7 0 -11 12 -11 11 0 41 -9 68 -19 27 -10 71 -27 97
-36 30 -11 68 -36 100 -69 29 -28 65 -61 80 -73 33 -25 30 -38 -10 -46 -16 -3
-37 -14 -48 -24 -11 -10 -38 -31 -60 -47 -60 -43 -136 -118 -146 -143 -10 -28
-2 -54 16 -47 7 3 23 26 36 51 24 47 79 98 138 128 50 25 58 6 19 -46 -75 -98
-95 -147 -107 -257 -14 -128 -14 -192 -1 -192 6 0 10 11 10 24 0 14 4 27 9 30
5 3 12 32 16 63 17 142 73 303 106 303 5 0 12 0 17 0 4 0 8 -16 9 -36 1 -20 9
-44 18 -54 8 -9 15 -22 15 -28 0 -6 11 -14 24 -18 14 -3 27 -12 30 -20 8 -20
76 -19 76 1 0 8 6 15 14 15 8 0 27 10 41 23 21 17 27 32 28 70 1 26 5 47 9 47
4 0 26 -25 49 -55 35 -46 43 -66 49 -118 4 -34 12 -74 18 -89 6 -15 14 -57 18
-93 4 -36 11 -65 15 -65 18 0 7 135 -22 285 -9 44 -62 145 -81 153 -5 2 -8 9
-8 16 0 7 -9 21 -20 31 -15 13 -17 22 -10 29 7 7 13 7 18 1 4 -6 21 -17 37
-25 57 -28 136 -91 148 -118 16 -35 34 -55 42 -43 3 5 1 12 -5 16 -5 3 -10 13
-10 22 0 24 -72 109 -110 129 -19 11 -43 29 -53 42 -10 12 -27 22 -37 22 -36
0 -72 19 -63 33 22 37 153 139 226 175 80 40 142 81 122 82 -40 1 -231 -87
-260 -121 -25 -27 -75 -51 -75 -36 0 7 16 45 36 85 28 58 34 81 28 105 -8 39
-122 271 -135 275 -5 2 -9 12 -9 23 0 10 -4 19 -10 19 -7 0 -10 209 -10 606
l0 605 30 26 c16 13 30 30 30 37 0 6 38 49 85 96 47 47 85 89 85 95 0 6 34 44
75 85 41 41 75 79 75 84 0 9 66 84 218 243 39 42 72 82 72 88 0 6 12 22 26 34
21 18 28 20 35 10 6 -10 9 -7 9 10 0 14 16 39 40 63 22 22 40 45 40 50 0 5 31
40 68 76 38 37 73 75 78 84 6 10 44 53 87 96 42 44 77 83 77 88 0 5 29 39 65
74 36 35 65 69 65 75 0 6 24 34 54 63 29 28 64 65 77 82 13 16 32 30 42 30 9
0 17 5 17 10 0 6 28 10 64 10 36 0 68 5 71 10 3 6 40 10 81 10 43 0 74 4 74
10 0 6 28 10 64 10 36 0 68 5 71 11 4 6 34 9 69 8 35 -1 69 2 77 7 8 5 39 7
70 5 34 -1 60 2 63 8 4 6 34 11 66 11 32 0 62 5 65 10 3 6 40 10 81 10 43 0
74 4 74 10 0 6 28 10 64 10 36 0 68 5 71 10 3 6 37 10 75 10 38 0 72 5 75 10
3 6 35 10 71 10 36 0 64 4 64 10 0 6 30 10 69 10 39 0 73 5 76 10 3 6 35 10
70 10 35 0 67 5 70 10 3 6 37 10 75 10 38 0 72 5 75 10 3 6 35 10 70 10 35 0
66 4 69 9 3 5 30 8 58 6 29 -1 59 3 67 9 8 6 44 12 80 13 101 3 195 14 206 24
5 5 42 9 82 9 42 0 73 4 73 10 0 6 28 10 64 10 36 0 68 5 71 10 3 6 35 10 71
10 36 0 64 4 64 10 0 6 31 10 74 10 41 0 78 5 81 10 3 6 33 10 65 10 32 0 62
5 65 10 3 6 40 10 81 10 43 0 74 4 74 10 0 13 107 13 112 0 2 -5 2 -363 0
-795 -2 -695 -4 -785 -17 -785 -39 0 -115 -88 -115 -133 0 -22 -17 -30 -30
-15 -21 26 -60 89 -58 96 1 8 -8 36 -25 71 -7 13 -12 29 -12 35 0 6 -8 38 -19
71 -10 33 -24 81 -32 107 -8 26 -14 65 -14 87 0 60 -16 50 -26 -16 -9 -56 1
-142 19 -159 4 -4 7 -22 7 -40 0 -18 5 -36 10 -39 6 -3 10 -17 10 -30 0 -13 4
-27 10 -30 6 -3 10 -15 10 -25 0 -11 9 -35 20 -55 11 -20 20 -44 20 -54 0 -11
3 -21 8 -23 9 -4 52 -65 52 -74 0 -4 10 -18 22 -31 28 -30 17 -39 -24 -23 -39
16 -82 49 -140 109 -103 106 -120 121 -128 116 -11 -7 -1 -43 21 -69 10 -11
59 -63 108 -113 65 -67 96 -93 114 -93 13 0 36 -9 50 -20 14 -11 30 -20 35
-20 30 0 17 -26 -39 -80 -34 -33 -65 -60 -69 -60 -4 0 -14 -7 -21 -16 -22 -27
-114 -81 -150 -89 -18 -4 -40 -11 -49 -15 -8 -4 -28 -13 -45 -20 -50 -20 -59
-26 -63 -38 -2 -7 3 -12 12 -12 23 0 196 58 212 71 8 6 14 9 14 5 0 -15 101
59 155 113 33 34 63 61 68 61 11 0 8 -38 -4 -46 -26 -16 -133 -199 -184 -314
-8 -19 -23 -48 -33 -65 -19 -31 -45 -135 -59 -238 -3 -20 -9 -40 -14 -43 -11
-7 -12 -54 -1 -54 15 0 72 145 72 184 0 21 68 161 91 185 8 9 24 35 34 59 10
23 22 42 26 42 3 0 18 28 33 63 64 146 94 181 126 142 16 -20 79 -20 86 0 7
16 44 21 44 5 0 -10 37 -69 69 -112 12 -14 21 -33 21 -42 0 -9 5 -16 10 -16 6
0 10 -9 10 -19 0 -11 8 -26 18 -33 23 -16 86 -163 138 -320 21 -65 42 -118 47
-118 13 0 7 67 -12 131 -11 35 -25 91 -32 124 -7 33 -16 65 -20 70 -21 30 -49
88 -49 104 0 10 -6 24 -13 30 -8 6 -24 32 -38 58 -13 27 -36 64 -51 83 -15 19
-28 38 -28 43 0 5 -9 21 -20 37 -28 39 -13 45 29 9 106 -89 149 -122 181 -135
19 -9 43 -20 52 -25 10 -5 26 -9 37 -9 10 0 35 -7 54 -15 42 -17 87 -20 87 -5
0 6 -12 15 -27 20 -16 6 -36 15 -45 20 -10 6 -27 10 -37 10 -11 0 -23 5 -26
10 -3 6 -17 10 -31 10 -13 0 -24 4 -24 10 0 5 -21 21 -47 36 -27 15 -73 54
-104 86 -30 32 -62 58 -71 58 -17 0 -48 31 -48 48 0 10 27 24 100 54 56 23
143 90 161 125 7 15 22 35 31 44 10 9 18 20 18 24 0 5 11 23 25 41 16 21 21
35 14 39 -6 4 -47 -30 -92 -78 -78 -80 -173 -155 -183 -144 -3 3 20 58 52 123
113 236 124 273 124 402 0 76 -4 102 -15 112 -18 15 -18 15 -15 -88 1 -46 -2
-95 -8 -110 -12 -33 -21 -60 -23 -70 0 -4 -7 -18 -14 -32 -12 -24 -32 -67 -69
-152 -15 -35 -58 -78 -77 -78 -5 0 -9 18 -9 41 0 22 -5 50 -12 62 -18 36 -61
74 -90 81 l-28 6 0 796 0 795 48 -2 c26 -1 54 1 61 6 8 4 44 7 82 6 38 -1 70
2 74 8 3 6 33 11 65 11 32 0 62 5 65 10 3 6 40 10 81 10 43 0 74 4 74 10 0 6
28 10 64 10 36 0 68 5 71 10 3 6 33 10 65 10 32 0 62 5 65 10 3 6 40 10 81 10
43 0 74 4 74 10 0 6 28 10 64 10 36 0 68 5 71 10 3 6 37 10 75 10 38 0 72 5
75 10 3 6 35 10 70 10 35 0 67 5 70 10 3 6 37 10 74 10 37 0 71 3 75 7 4 5 33
9 64 10 31 1 93 7 137 13 44 6 107 13 140 16 33 3 64 10 69 15 6 5 38 9 72 9
35 0 66 5 69 10 3 6 37 10 75 10 38 0 72 5 75 10 3 6 35 10 71 10 36 0 64 4
64 10 0 6 32 10 75 10 43 0 75 4 75 10 0 6 28 10 64 10 36 0 68 5 71 10 3 6
35 10 71 10 36 0 64 4 64 10 0 6 31 10 74 10 41 0 78 5 81 10 3 6 36 10 72 10
l66 0 104 -105 c57 -58 108 -105 113 -105 6 0 24 -13 42 -30 17 -16 37 -30 44
-30 8 0 14 -4 14 -10 0 -5 6 -10 14 -10 7 0 19 -7 26 -15 7 -8 51 -33 99 -55
47 -23 94 -45 103 -51 10 -5 27 -9 37 -9 11 0 23 -4 26 -10 3 -5 17 -10 31
-10 13 0 24 -4 24 -10 0 -5 15 -10 34 -10 19 0 38 -4 41 -10 3 -5 40 -10 81
-10 43 0 74 -4 74 -10 0 -5 18 -10 39 -10 22 0 43 5 46 10 3 6 39 10 80 10 41
0 77 5 80 10 3 6 17 10 31 10 13 0 33 5 44 10 11 6 29 15 40 20 11 6 29 10 40
10 11 0 20 4 20 9 0 5 12 12 27 15 14 4 45 20 69 37 23 16 47 29 52 29 4 0 19
12 33 26 13 14 32 29 41 33 24 9 178 161 178 175 0 7 11 23 25 36 14 13 25 29
25 35 0 7 8 19 18 28 10 9 24 32 32 52 15 38 35 42 35 8 0 -12 3 -25 8 -29 4
-4 7 -27 7 -51 0 -24 5 -43 10 -43 6 0 10 -18 10 -40 0 -22 5 -40 10 -40 6 0
10 -18 10 -40 0 -22 4 -48 9 -58 15 -31 31 -88 31 -115 0 -14 5 -29 10 -32 6
-3 10 -17 10 -30 0 -13 5 -27 10 -30 6 -3 10 -17 10 -30 0 -13 5 -27 10 -30 6
-4 8 -15 5 -25 -3 -10 -1 -21 5 -25 5 -3 10 -17 10 -30 0 -13 5 -27 10 -30 6
-3 10 -17 10 -31 0 -13 3 -24 8 -24 4 0 13 -15 20 -32 8 -18 17 -42 22 -53 26
-65 41 -94 55 -105 8 -7 15 -18 15 -25 0 -6 9 -20 20 -30 11 -10 20 -24 20
-31 0 -8 18 -25 40 -39 44 -28 115 -34 153 -12 35 19 67 49 67 63 0 6 6 17 14
23 16 14 96 170 96 189 0 6 9 27 20 47 11 20 20 44 20 55 0 10 5 22 10 25 6 3
10 17 10 30 0 13 4 27 10 30 5 3 10 22 10 41 0 19 5 34 10 34 6 0 10 15 10 34
0 19 5 38 10 41 6 3 10 21 10 40 0 19 5 37 10 40 6 4 10 24 8 46 -1 21 3 44 9
50 6 6 9 26 6 44 -3 19 0 35 6 39 6 4 11 27 11 51 0 24 4 47 10 50 5 3 10 28
10 55 0 27 5 52 10 55 6 3 10 30 10 60 0 30 4 57 10 60 5 3 10 34 10 69 0 38
6 76 16 95 16 31 18 32 67 27 29 -2 56 -1 62 4 5 4 42 11 80 14 158 13 200 18
210 27 5 5 29 9 55 9 39 0 47 -4 58 -27 6 -15 12 -44 12 -64 0 -21 4 -41 10
-44 5 -3 10 -17 10 -30 0 -13 5 -27 10 -30 6 -4 8 -15 5 -25 -3 -10 -1 -21 5
-25 5 -3 10 -19 10 -35 0 -16 5 -32 10 -35 6 -3 10 -39 10 -80 0 -41 5 -77 10
-80 6 -3 10 -22 10 -41 0 -19 5 -34 10 -34 6 0 10 -11 10 -24 0 -18 11 -30 47
-49 26 -13 49 -29 51 -36 5 -14 -34 -15 -43 -1 -4 7 -11 7 -18 2 -7 -5 -49
-12 -95 -15 -86 -5 -98 -9 -88 -25 4 -6 21 -7 44 -1 72 16 150 21 157 10 3 -6
20 -11 36 -11 43 0 32 -23 -17 -33 -21 -4 -43 -12 -48 -17 -6 -6 -16 -10 -23
-10 -19 0 -85 -68 -73 -75 6 -3 10 -1 10 4 0 6 6 11 13 11 8 0 22 9 32 20 10
11 28 20 41 20 13 0 26 5 29 10 3 6 17 10 31 10 13 0 24 5 24 10 0 6 11 10 25
10 32 0 32 -13 1 -34 -14 -8 -39 -44 -55 -80 -17 -35 -38 -69 -46 -76 -9 -7
-15 -29 -15 -51 0 -21 -4 -41 -10 -44 -13 -8 -13 -95 0 -95 6 0 10 13 10 29 0
17 5 33 10 36 6 3 10 17 10 31 0 13 4 32 9 42 6 9 22 44 37 77 26 57 78 125
96 125 4 0 8 -10 8 -23 0 -13 14 -37 33 -55 31 -30 38 -32 103 -32 58 0 71 -3
82 -20 7 -11 18 -20 26 -20 7 0 19 -7 26 -15 15 -18 150 -85 172 -85 9 0 19
-4 22 -9 3 -5 15 -7 25 -4 10 3 22 0 25 -6 4 -6 25 -11 46 -11 21 0 42 -4 45
-10 4 -6 63 -10 145 -10 82 0 141 4 145 10 3 6 25 10 49 10 23 0 47 5 54 12 9
9 16 7 32 -7 17 -15 20 -31 20 -92 0 -42 4 -73 10 -73 6 0 10 -31 10 -74 0
-41 5 -78 10 -81 6 -3 10 -28 10 -55 0 -27 4 -52 10 -55 6 -3 10 -26 10 -50 0
-24 5 -47 10 -50 6 -4 8 -15 5 -25 -3 -10 -1 -21 5 -25 5 -3 10 -17 10 -31 0
-17 6 -24 19 -24 11 0 21 -5 23 -12 3 -8 15 -2 32 15 15 15 26 34 23 40 -3 7
1 21 8 30 7 9 10 28 8 41 -3 13 0 27 6 30 6 4 11 31 11 61 0 30 5 57 10 60 6
3 10 42 10 85 0 43 5 82 10 85 6 3 10 46 10 94 0 52 5 92 11 98 7 7 11 40 11
75 -1 53 3 68 22 91 13 15 30 27 38 27 9 0 21 7 28 15 7 8 17 15 23 15 5 0 28
18 49 40 22 22 45 40 51 40 7 0 23 14 36 30 23 30 63 40 76 20 3 -5 15 -10 26
-10 10 0 19 -6 19 -13 0 -9 11 -12 35 -9 21 3 35 0 35 -7 0 -6 19 -11 44 -11
25 0 48 -5 51 -10 8 -13 245 -13 245 0 0 6 23 10 50 10 28 0 50 5 50 10 0 6
15 10 34 10 19 0 38 5 41 10 3 6 17 10 30 10 13 0 27 5 30 10 3 6 17 10 30 10
13 0 25 4 27 8 3 8 110 62 122 62 4 0 27 13 51 30 24 16 48 30 52 30 5 0 22
14 38 30 16 17 34 30 40 30 6 0 24 14 40 30 16 17 34 30 40 30 29 0 223 227
254 297 5 11 15 24 20 28 6 3 20 25 31 49 10 23 26 49 35 56 8 7 15 19 15 26
0 8 5 14 10 14 6 0 10 14 10 30 0 17 4 30 8 30 5 0 13 17 18 38 11 47 28 48
32 2 2 -19 8 -39 13 -44 5 -6 9 -20 9 -32 0 -13 5 -26 10 -29 6 -3 10 -17 10
-31 0 -13 4 -24 9 -24 9 0 25 -56 22 -76 -1 -7 5 -14 13 -17 8 -3 22 -23 32
-44 10 -21 28 -51 41 -66 13 -16 23 -32 23 -37 0 -11 107 -113 123 -119 7 -2
27 -17 45 -34 17 -17 32 -28 32 -25 0 4 34 -11 76 -33 42 -21 85 -39 95 -39
11 0 19 -4 19 -10 0 -5 20 -10 44 -10 25 0 48 -4 51 -10 8 -13 312 -13 320 0
3 6 26 10 50 10 24 0 47 5 50 10 3 6 22 10 41 10 19 0 34 5 34 10 0 6 11 10
24 10 14 0 28 5 31 10 3 6 15 10 25 10 11 0 36 9 56 21 20 11 42 18 49 15 7
-2 20 3 29 13 8 9 31 23 51 31 19 8 35 17 35 22 0 4 7 8 16 8 9 0 29 14 44 30
15 16 35 30 44 30 9 0 16 4 16 10 0 5 28 33 63 61 34 29 64 57 66 63 2 6 33
39 67 74 35 35 64 68 64 75 0 7 9 19 20 27 11 8 20 20 20 27 0 14 60 83 72 83
5 0 8 -22 8 -50 0 -27 5 -50 10 -50 6 0 10 -15 10 -34 0 -19 5 -38 10 -41 6
-3 10 -19 10 -35 0 -16 9 -45 20 -65 11 -20 20 -41 20 -47 0 -16 60 -137 71
-143 5 -4 18 -25 28 -48 11 -23 38 -60 61 -82 23 -22 46 -50 51 -63 5 -12 19
-26 31 -31 13 -5 41 -28 63 -50 21 -23 44 -41 51 -41 6 0 17 -7 24 -15 17 -20
151 -85 177 -85 12 0 25 -4 28 -10 3 -5 21 -10 40 -10 19 0 37 -5 40 -10 8
-13 272 -13 280 0 3 6 22 10 41 10 19 0 34 5 34 10 0 18 67 11 93 -10 14 -11
28 -20 31 -20 3 0 28 -16 55 -35 26 -19 53 -35 60 -35 6 0 11 -3 11 -8 0 -4
15 -13 33 -21 17 -8 43 -22 57 -31 14 -10 45 -29 69 -43 25 -13 53 -39 63 -57
24 -46 88 -110 109 -110 10 0 21 -4 24 -10 8 -13 92 -13 100 0 7 12 42 13 47
2 4 -10 150 -82 166 -82 6 0 15 -8 21 -17 5 -10 13 -14 17 -10 4 4 15 0 25 -9
15 -14 17 -28 12 -99 -6 -80 -5 -84 20 -109 18 -18 37 -26 61 -26 42 0 117 39
168 88 36 34 38 35 57 18 11 -10 24 -16 29 -12 4 3 23 -4 40 -15 18 -10 41
-19 52 -19 10 0 22 -4 25 -10 3 -5 17 -10 30 -10 13 0 27 -4 30 -10 3 -5 15
-10 25 -10 11 0 35 -9 55 -20 20 -11 44 -20 55 -20 11 0 20 -4 20 -10 0 -5 9
-10 20 -10 16 0 20 -7 20 -33 0 -58 68 -100 100 -62 14 17 67 45 85 45 7 0 18
-7 25 -15 7 -8 16 -13 20 -10 5 3 19 1 32 -4 13 -5 43 -14 68 -21 25 -7 53
-16 62 -21 10 -5 31 -9 47 -9 17 0 33 -4 36 -10 3 -6 20 -10 36 -10 36 0 59
-20 59 -51 0 -29 27 -48 70 -49 25 0 39 6 48 21 11 18 20 20 55 15 102 -14
127 -19 133 -27 3 -5 25 -9 49 -9 24 0 47 -5 51 -11 4 -7 22 -9 45 -6 36 5 40
3 55 -28 23 -48 95 -62 129 -25 19 21 60 27 70 10 3 -6 33 -10 65 -10 32 0 62
-4 65 -10 3 -5 31 -10 61 -10 l54 0 0 -2284 c0 -1630 -3 -2287 -11 -2292 -6
-3 -24 -34 -40 -69 -15 -34 -35 -68 -44 -75 -8 -7 -15 -18 -15 -25 0 -7 -7
-18 -15 -25 -19 -16 -45 -68 -45 -92 0 -10 -4 -18 -10 -18 -5 0 -10 -11 -10
-24 0 -14 -5 -28 -10 -31 -5 -3 -10 -14 -10 -25 0 -10 -10 -36 -22 -59 -19
-37 -20 -43 -7 -68 8 -16 22 -37 32 -47 9 -11 17 -25 17 -32 0 -7 4 -14 8 -16
4 -1 20 -28 35 -59 15 -32 34 -62 42 -69 8 -7 15 -19 15 -26 0 -8 5 -14 10
-14 6 0 10 -7 10 -15 0 -27 -16 -16 -84 55 -36 39 -72 70 -79 70 -7 0 -19 9
-27 21 -19 27 -145 89 -181 89 -15 0 -31 4 -34 10 -3 5 -17 10 -31 10 -13 0
-24 5 -24 10 0 6 -9 10 -20 10 -11 0 -20 5 -20 10 0 6 -9 10 -21 10 -32 0 -19
-33 16 -41 29 -7 68 -20 128 -43 15 -6 27 -14 27 -18 0 -5 9 -8 20 -8 11 0 20
-4 20 -10 0 -5 9 -10 20 -10 11 0 20 -4 20 -10 0 -5 6 -10 13 -10 8 0 43 -29
79 -65 36 -36 71 -65 77 -65 12 0 81 -64 81 -75 0 -4 -9 -5 -20 -2 -11 3 -20
0 -20 -6 0 -7 -35 -29 -78 -49 -43 -21 -94 -55 -117 -77 -21 -23 -45 -41 -52
-41 -8 0 -17 -8 -20 -18 -11 -27 -60 -95 -83 -115 -11 -10 -18 -22 -14 -28 4
-7 46 28 103 83 53 52 110 101 126 109 17 7 37 21 45 29 15 15 55 40 65 40 14
0 2 -29 -19 -49 -14 -13 -32 -38 -41 -55 -9 -17 -25 -44 -35 -61 -24 -37 -25
-39 -41 -97 -7 -27 -17 -48 -21 -48 -4 0 -8 -13 -8 -30 0 -16 -3 -30 -8 -30
-16 0 -35 -67 -33 -117 2 -33 -2 -53 -8 -53 -7 0 -11 -34 -11 -95 0 -57 4 -95
10 -95 6 0 10 18 10 40 0 22 5 40 10 40 6 0 10 31 10 74 0 41 5 78 10 81 6 4
10 14 9 23 -2 10 5 34 14 56 9 21 17 45 17 52 0 8 5 14 10 14 6 0 10 11 10 24
0 14 5 28 10 31 5 3 10 14 10 24 0 22 42 105 66 133 11 11 18 23 16 26 -2 4 1
8 7 10 7 2 11 -14 11 -42 0 -26 4 -54 9 -64 5 -9 16 -33 25 -53 24 -56 74 -89
136 -89 58 0 130 45 130 82 0 10 3 18 8 18 13 0 32 56 34 104 1 25 6 45 11 43
5 -1 8 -6 7 -11 -1 -5 3 -12 8 -15 21 -13 72 -124 67 -142 -4 -11 -2 -19 4
-19 12 0 41 -57 41 -81 0 -10 4 -20 9 -24 6 -3 13 -26 17 -50 3 -25 10 -48 15
-51 5 -3 9 -29 9 -59 0 -30 5 -57 10 -60 6 -3 10 -31 10 -61 0 -30 5 -54 10
-54 6 0 10 42 10 105 0 63 -4 105 -10 105 -5 0 -10 22 -10 48 0 47 -18 102
-32 102 -5 0 -8 14 -8 30 0 17 -4 30 -10 30 -5 0 -10 11 -10 24 0 14 -4 28
-10 31 -5 3 -10 15 -10 25 0 20 -42 103 -66 131 -8 8 -14 20 -14 26 0 6 -11
18 -25 27 -21 14 -35 46 -20 46 7 0 48 -23 55 -31 3 -3 21 -12 40 -21 19 -9
55 -37 80 -62 24 -25 50 -46 57 -46 7 0 13 -6 13 -13 0 -16 82 -97 98 -97 17
0 15 5 -15 38 -31 32 -60 71 -84 111 -8 14 -26 31 -38 37 -12 7 -37 25 -54 41
-18 16 -65 45 -104 64 -40 19 -73 36 -73 39 0 13 59 30 101 30 26 0 51 5 54
10 8 13 285 13 285 0 0 -5 20 -10 44 -10 25 0 48 -5 51 -10 11 -18 35 -11 35
10 0 16 -7 20 -34 20 -19 0 -38 5 -41 10 -3 6 -26 10 -50 10 -24 0 -46 4 -49
9 -3 5 -34 6 -70 4 -41 -4 -66 -2 -70 6 -9 14 -53 15 -61 1 -3 -6 -26 -10 -50
-10 -24 0 -47 -4 -50 -10 -10 -16 -55 -12 -55 5 0 8 7 15 15 15 8 0 23 4 33 9
76 38 106 51 121 51 10 0 21 3 25 8 4 4 12 8 17 8 5 1 13 2 18 3 5 0 13 11 16
24 4 12 18 46 31 75 13 29 24 56 24 60 0 15 25 62 33 62 4 0 7 9 7 20 0 11 5
20 10 20 6 0 10 20 10 44 0 25 5 48 10 51 6 3 10 22 10 41 0 19 5 34 10 34 6
0 10 15 10 34 0 19 5 38 10 41 12 7 14 55 2 55 -17 0 -32 -26 -32 -56 0 -18
-4 -36 -10 -39 -5 -3 -10 -17 -10 -30 0 -13 -5 -27 -10 -30 -6 -3 -10 -21 -10
-39 0 -18 -7 -41 -15 -52 -8 -10 -15 -26 -15 -35 0 -9 -18 -51 -40 -94 -22
-43 -40 -85 -40 -94 0 -9 -15 -25 -33 -35 -67 -41 -121 -66 -139 -66 -10 0
-18 -4 -18 -10 0 -5 -9 -10 -20 -10 -11 0 -20 -3 -20 -7 0 -11 -50 -33 -71
-33 -10 0 -21 -4 -24 -10 -10 -17 -25 -11 -25 9 0 11 -5 23 -10 26 -8 5 -7 11
0 20 14 17 -4 55 -25 55 -13 0 -15 326 -17 2586 -2 1422 1 2588 5 2591 4 3 15
-1 24 -8 13 -11 18 -10 33 9 40 49 40 49 66 -293 3 -38 10 -74 15 -79 5 -6 9
-38 9 -73 0 -35 4 -63 10 -63 6 0 10 -22 10 -49 0 -28 5 -53 10 -56 5 -3 10
-24 10 -45 0 -21 5 -42 10 -45 6 -3 10 -22 10 -41 0 -19 5 -34 10 -34 6 0 10
-13 10 -30 0 -16 3 -30 8 -30 4 0 13 -15 21 -32 25 -60 49 -78 102 -78 45 0
52 3 99 53 27 28 50 57 50 62 0 6 9 17 20 25 11 8 20 22 20 32 0 10 5 18 10
18 6 0 10 9 10 20 0 11 3 20 8 20 9 0 42 74 42 95 0 8 7 15 15 15 12 0 15 -16
15 -85 0 -50 4 -85 10 -85 6 0 10 -64 10 -173 0 -95 4 -177 9 -183 6 -5 12
-70 16 -144 3 -74 7 -170 9 -213 1 -42 6 -80 9 -84 4 -3 7 -37 7 -74 0 -37 5
-71 10 -74 5 -3 10 -35 10 -70 0 -35 4 -67 10 -70 5 -3 10 -28 10 -55 0 -27 5
-52 10 -55 6 -3 10 -26 10 -50 0 -24 5 -47 10 -50 6 -3 10 -26 10 -51 0 -24 5
-44 10 -44 6 0 10 -15 11 -32 1 -48 30 -92 62 -96 23 -3 27 0 27 22 0 14 5 28
10 31 6 4 10 67 10 156 0 116 3 150 13 146 6 -2 11 -12 10 -21 0 -10 12 -42
28 -73 16 -30 29 -60 29 -67 0 -18 24 -66 33 -66 4 0 7 -9 7 -20 0 -11 5 -20
10 -20 6 0 10 -6 10 -13 0 -7 25 -61 55 -122 53 -106 55 -111 55 -191 0 -46 5
-86 10 -89 6 -4 10 -53 10 -115 0 -62 4 -111 10 -115 6 -4 10 -53 10 -115 0
-62 4 -111 10 -115 5 -3 10 -42 10 -85 0 -43 5 -82 10 -85 5 -3 10 -35 10 -70
0 -35 5 -67 10 -70 6 -3 10 -28 10 -55 0 -27 4 -51 9 -54 4 -3 11 -37 15 -76
4 -38 11 -72 17 -75 5 -4 9 -17 9 -31 0 -13 5 -24 10 -24 6 0 10 -9 10 -20 0
-27 17 -57 59 -102 l35 -38 28 27 c20 19 28 37 28 60 0 18 5 33 10 33 6 0 10
46 10 119 0 69 4 122 10 126 13 8 13 172 0 180 -13 8 -14 315 -1 315 5 0 18
-15 30 -32 11 -18 26 -42 33 -53 7 -11 21 -27 31 -36 13 -13 17 -33 17 -87 0
-39 5 -74 10 -77 5 -3 10 -31 10 -61 0 -30 5 -54 10 -54 6 0 10 -24 10 -54 0
-30 5 -58 11 -62 7 -4 9 -21 5 -42 -3 -21 -1 -42 6 -50 7 -8 11 -29 9 -47 -1
-18 2 -36 8 -40 6 -3 11 -26 11 -50 0 -24 5 -47 10 -50 6 -3 10 -24 10 -45 0
-21 5 -42 10 -45 6 -3 10 -24 10 -46 0 -21 5 -39 10 -39 6 0 10 -15 10 -34 0
-19 5 -38 10 -41 6 -3 10 -17 10 -30 0 -13 5 -27 10 -30 6 -3 10 -22 10 -41 0
-19 5 -34 10 -34 6 0 10 -11 10 -24 0 -14 5 -28 10 -31 6 -3 10 -17 10 -30 0
-13 5 -27 11 -31 6 -3 9 -15 6 -25 -3 -10 1 -23 8 -29 8 -6 14 -19 14 -28 1
-35 14 -82 22 -82 5 0 9 -13 9 -30 0 -16 5 -30 10 -30 6 0 10 32 10 75 0 41
-3 75 -7 75 -11 0 -33 50 -33 71 0 10 -4 21 -10 24 -5 3 -10 17 -10 30 0 13
-4 27 -10 30 -5 3 -10 22 -10 41 0 19 -4 34 -10 34 -5 0 -10 11 -10 24 0 14
-4 28 -10 31 -5 3 -10 21 -10 40 0 19 -4 36 -9 39 -5 3 -7 15 -4 27 3 11 1 30
-5 42 -10 22 -18 54 -29 130 -3 20 -9 40 -14 43 -5 3 -9 25 -9 49 0 24 -4 47
-10 50 -5 3 -10 26 -10 51 0 24 -4 44 -10 44 -5 0 -10 24 -10 54 0 30 -4 58
-10 61 -5 3 -10 28 -10 55 0 27 -5 52 -10 55 -12 8 -13 112 -2 119 10 6 52
-39 52 -55 0 -5 27 -37 60 -69 33 -33 59 -63 58 -67 -2 -8 77 -93 87 -93 3 0
5 14 5 30 0 24 -13 44 -60 92 -33 33 -60 65 -60 70 0 6 -25 34 -55 63 -30 29
-55 57 -55 63 0 5 -9 17 -20 27 -31 28 -24 35 34 35 30 0 58 5 61 10 3 6 24
10 45 10 21 0 42 5 45 10 3 6 19 10 36 10 24 0 29 4 29 25 0 14 -4 25 -10 25
-5 0 -10 -4 -10 -10 0 -5 -15 -10 -34 -10 -19 0 -38 -4 -41 -10 -3 -5 -21 -10
-40 -10 -19 0 -37 -4 -40 -10 -3 -5 -29 -10 -57 -10 -51 0 -108 28 -108 54 0
7 -13 25 -30 41 -16 16 -30 34 -30 40 0 7 -9 20 -20 30 -11 10 -20 23 -20 29
0 5 -12 22 -26 37 -29 30 -43 52 -74 115 -11 23 -27 47 -35 54 -8 7 -15 19
-15 26 0 8 -9 19 -20 26 -11 7 -20 21 -20 30 0 10 -4 18 -9 18 -5 0 -11 8 -15
18 -3 9 -9 23 -12 30 -4 9 11 12 60 12 35 0 68 4 71 10 3 5 26 10 50 10 24 0
47 5 50 10 3 6 22 10 41 10 19 0 34 3 34 8 0 9 49 32 69 32 20 1 73 27 128 63
24 15 46 27 51 27 18 0 112 107 112 128 0 30 -8 28 -43 -13 -29 -35 -110 -95
-126 -95 -5 0 -14 -7 -21 -15 -15 -18 -109 -65 -131 -65 -10 0 -21 -4 -24 -10
-3 -5 -17 -10 -31 -10 -13 0 -24 -4 -24 -10 0 -5 -15 -10 -34 -10 -19 0 -38
-4 -41 -10 -3 -5 -26 -10 -50 -10 -24 0 -47 -4 -50 -10 -3 -5 -33 -10 -65 -10
l-60 0 -19 43 c-11 23 -20 47 -21 52 -1 6 -7 17 -15 25 -22 25 -85 151 -85
170 0 10 -4 20 -8 22 -12 5 -102 192 -102 211 0 9 -9 32 -20 52 -11 20 -20 38
-20 40 0 3 33 5 74 5 41 0 78 5 81 10 3 6 26 10 50 10 24 0 47 5 50 11 4 5 12
8 18 6 7 -2 26 4 42 13 17 9 42 20 56 23 35 9 166 143 190 195 11 23 26 42 35
42 8 0 39 -22 68 -50 29 -27 57 -50 61 -50 4 0 26 -18 47 -40 22 -22 45 -40
52 -40 6 0 18 -9 26 -20 8 -11 19 -20 26 -20 6 0 19 -9 29 -20 15 -17 69 -50
82 -50 1 0 3 9 3 21 0 23 -22 49 -42 49 -8 0 -20 9 -28 20 -8 11 -19 20 -25
20 -6 0 -26 16 -45 35 -19 19 -39 35 -45 35 -6 0 -29 18 -50 40 -21 22 -44 40
-49 40 -6 0 -30 19 -53 42 l-43 42 0 187 c0 115 4 190 10 194 6 3 10 24 10 45
0 21 5 42 11 46 6 3 9 20 7 36 -3 16 -1 31 4 34 4 3 8 16 8 29 0 13 5 27 10
30 6 3 10 14 10 24 0 21 22 71 33 71 4 0 7 7 7 15 0 14 19 54 30 65 3 3 18 31
34 62 15 32 32 60 37 64 6 3 15 16 20 27 36 80 73 117 116 117 23 0 33 5 33
15 0 11 -11 15 -36 15 -42 0 -59 17 -105 107 -18 35 -36 63 -41 63 -4 0 -8 9
-8 20 0 11 -4 20 -10 20 -5 0 -10 9 -10 19 0 11 -3 21 -8 23 -10 4 -52 87 -52
102 0 7 -9 31 -20 54 -11 22 -20 48 -20 56 0 8 -5 18 -11 21 -5 4 -9 17 -8 28
2 12 -2 31 -8 42 -6 11 -8 25 -6 32 2 6 -1 14 -6 18 -6 3 -11 26 -11 50 0 24
-4 47 -10 50 -5 3 -10 28 -10 55 0 27 -4 52 -10 55 -5 3 -10 39 -10 80 0 41
-4 77 -10 80 -5 3 -10 46 -10 95 0 49 -4 92 -10 95 -5 3 -10 40 -10 81 0 42
-5 83 -12 94 -10 16 -10 24 0 40 6 11 12 27 12 35 0 8 9 20 20 27 11 7 20 21
20 30 0 10 5 18 10 18 6 0 10 9 10 20 0 11 3 20 8 20 4 0 16 21 26 48 25 62
46 93 57 86 5 -3 9 -38 9 -79 0 -42 5 -77 11 -81 6 -4 9 -30 7 -64 -1 -32 0
-62 5 -66 4 -4 7 -29 7 -55 0 -26 5 -51 10 -54 6 -3 10 -26 10 -50 0 -24 5
-47 10 -50 6 -3 10 -26 10 -51 0 -24 5 -44 10 -44 6 0 10 -11 10 -24 0 -14 5
-28 10 -31 6 -3 10 -22 10 -41 0 -19 5 -34 10 -34 6 0 10 -13 10 -30 0 -16 5
-30 10 -30 6 0 10 -7 10 -15 0 -9 9 -35 20 -57 11 -23 20 -48 20 -55 0 -7 8
-27 18 -45 10 -18 22 -46 26 -63 10 -42 29 -85 38 -85 5 0 8 25 8 55 0 30 -3
55 -7 55 -9 0 -33 48 -33 65 0 6 -9 30 -20 53 -11 22 -20 48 -20 57 0 8 -4 15
-10 15 -5 0 -10 11 -10 24 0 14 -4 27 -9 30 -8 5 -13 26 -24 101 -2 11 -6 27
-9 35 -20 57 -28 91 -28 118 0 18 -4 32 -10 32 -5 0 -10 24 -10 54 0 30 -4 58
-10 61 -5 3 -10 33 -10 65 0 32 -4 62 -10 65 -5 3 -10 35 -10 71 0 36 -4 64
-10 64 -6 0 -10 40 -10 99 0 83 4 106 23 143 12 23 25 45 30 46 4 2 7 12 7 23
0 10 5 19 10 19 6 0 10 9 10 20 0 11 4 28 10 38 5 9 19 38 30 65 25 58 40 60
40 7 0 -22 4 -40 9 -40 9 0 20 -55 24 -120 2 -19 7 -42 12 -50 5 -8 8 -27 6
-42 -1 -16 2 -28 8 -28 6 0 11 -18 11 -40 0 -22 5 -40 10 -40 6 0 10 40 10 99
0 56 -4 103 -10 106 -5 3 -10 21 -10 40 0 19 -4 37 -10 40 -5 3 -10 22 -10 41
0 19 -4 34 -10 34 -5 0 -10 15 -10 34 0 19 -4 38 -10 41 -5 3 -10 21 -10 40 0
19 5 37 10 40 6 3 10 17 10 31 0 13 5 24 10 24 6 0 10 14 10 30 0 17 5 30 10
30 6 0 10 14 10 30 0 17 5 30 10 30 6 0 10 32 10 76 0 47 -4 73 -10 69 -6 -3
-10 -17 -10 -30 0 -13 -5 -27 -10 -30 -6 -4 -10 -14 -8 -23 1 -10 -1 -23 -6
-31 -5 -8 -10 -24 -11 -35 -3 -36 -17 -76 -26 -76 -5 0 -9 -13 -9 -30 0 -16
-4 -30 -10 -30 -5 0 -10 -9 -10 -20 0 -19 -7 -20 -114 -20 -66 0 -117 4 -121
10 -3 6 -37 10 -75 10 -38 0 -72 5 -75 10 -3 6 -26 10 -50 10 -24 0 -47 5 -50
10 -3 5 -26 10 -51 10 -24 0 -44 5 -44 10 0 6 -15 10 -34 10 -19 0 -38 4 -41
10 -3 5 -17 10 -30 10 -13 0 -26 4 -29 9 -3 5 -15 7 -25 4 -10 -3 -22 0 -25 6
-4 6 -15 11 -25 11 -21 0 -71 22 -71 33 0 4 -9 7 -20 7 -11 0 -20 5 -20 10 0
6 -8 10 -18 10 -21 0 -104 40 -130 62 -9 8 -33 22 -52 32 -55 28 -79 42 -98
59 -10 10 -23 17 -29 17 -15 0 -53 45 -53 63 0 11 -8 17 -25 17 -15 0 -25 -6
-25 -14 0 -14 -41 -51 -122 -114 -24 -18 -57 -44 -74 -57 -18 -14 -35 -25 -38
-25 -4 0 -36 -23 -71 -50 -35 -28 -67 -50 -70 -50 -4 0 -21 -11 -39 -25 -18
-14 -40 -25 -49 -25 -10 0 -17 -4 -17 -10 0 -5 -6 -10 -14 -10 -7 0 -19 -7
-26 -15 -10 -12 -214 -119 -230 -120 -3 0 -12 -5 -20 -10 -8 -5 -19 -10 -25
-10 -25 -2 -65 -18 -65 -26 0 -5 -11 -9 -24 -9 -14 0 -28 -4 -31 -10 -3 -5
-17 -10 -30 -10 -13 0 -27 -4 -30 -10 -3 -5 -17 -10 -30 -10 -13 0 -27 -4 -30
-10 -3 -5 -17 -10 -31 -10 -13 0 -24 -4 -24 -10 0 -5 -18 -10 -40 -10 -22 0
-40 -4 -40 -10 0 -5 -15 -10 -34 -10 -19 0 -38 -4 -41 -10 -3 -5 -28 -10 -55
-10 -27 0 -52 -4 -55 -10 -3 -5 -30 -10 -60 -10 -30 0 -56 -4 -59 -9 -8 -13
-437 -8 -460 6 -10 6 -27 8 -38 5 -23 -6 -58 24 -58 51 0 24 -29 87 -41 87
-12 0 -12 -25 0 -48 31 -60 34 -73 24 -83 -8 -8 -13 -8 -17 0 -4 6 -27 11 -52
11 -37 0 -44 3 -44 20 0 13 -7 20 -19 20 -13 0 -21 8 -23 22 -2 12 -13 28 -26
34 -13 6 -38 25 -55 41 -29 26 -106 73 -121 73 -3 0 -6 -7 -6 -15 0 -8 6 -15
13 -15 7 0 23 -9 35 -20 12 -11 25 -20 30 -20 16 0 127 -109 119 -117 -4 -4
-17 -2 -27 5 -11 7 -31 12 -44 12 -14 0 -28 5 -31 10 -3 5 -17 10 -31 10 -13
0 -24 5 -24 10 0 6 -7 10 -16 10 -15 0 -93 77 -94 93 0 5 -14 22 -30 37 -17
15 -30 34 -30 40 0 7 -8 20 -18 29 -32 29 -90 111 -111 156 -5 12 -16 27 -25
34 -9 7 -16 19 -16 26 0 6 -9 20 -20 30 -26 24 -26 55 0 55 11 0 20 -4 20 -10
0 -5 20 -10 44 -10 25 0 48 -4 51 -10 3 -5 37 -10 75 -10 38 0 72 -5 75 -10 8
-14 412 -14 420 0 3 6 40 10 81 10 43 0 74 4 74 10 0 6 24 10 54 10 30 0 58 5
61 10 3 6 24 10 45 10 21 0 42 5 45 10 3 6 21 10 40 10 19 0 37 5 41 11 3 6
15 9 25 6 10 -3 23 1 29 8 6 7 19 11 29 8 9 -2 23 2 30 10 6 8 21 13 31 10 11
-3 20 0 20 6 0 6 14 11 30 11 17 0 30 5 30 10 0 6 -28 10 -65 10 -37 0 -65 -4
-65 -10 0 -5 -11 -10 -24 -10 -14 0 -28 -4 -31 -10 -3 -5 -21 -10 -40 -10 -19
0 -37 -4 -40 -10 -3 -5 -22 -10 -41 -10 -19 0 -34 -4 -34 -10 0 -5 -20 -10
-44 -10 -25 0 -48 -4 -51 -10 -3 -5 -30 -10 -59 -10 -28 0 -56 -4 -61 -9 -15
-15 -443 -32 -451 -19 -3 4 -41 8 -84 8 -43 0 -82 5 -85 10 -3 6 -30 10 -60
10 -30 0 -57 5 -60 10 -3 6 -26 10 -51 10 -24 0 -44 5 -44 10 0 6 -9 10 -20
10 -12 0 -20 7 -20 16 0 27 -27 44 -69 44 l-41 0 0 -40 c0 -22 -4 -40 -10 -40
-5 0 -10 -11 -10 -24 0 -14 -4 -28 -10 -31 -5 -3 -10 -15 -10 -25 0 -11 -9
-35 -20 -55 -11 -19 -17 -35 -13 -35 4 0 2 -5 -5 -12 -7 -7 -12 -20 -12 -30 0
-22 -19 -57 -42 -79 -10 -9 -18 -24 -18 -33 0 -9 -4 -16 -10 -16 -5 0 -10 -8
-10 -18 0 -9 -9 -23 -20 -30 -11 -7 -20 -18 -20 -25 0 -7 -13 -26 -30 -42 -16
-16 -27 -31 -25 -34 7 -7 -147 -161 -161 -161 -6 0 -21 -11 -34 -25 -13 -14
-29 -25 -37 -25 -7 0 -18 -9 -25 -20 -7 -11 -20 -20 -28 -20 -9 0 -22 -9 -30
-20 -8 -11 -22 -20 -31 -20 -10 0 -19 -3 -21 -7 -5 -13 -88 -53 -108 -53 -11
0 -22 -4 -25 -10 -10 -16 -41 -11 -60 10 -10 11 -23 20 -30 20 -7 0 -20 9 -30
20 -10 11 -23 20 -30 20 -7 0 -20 9 -30 20 -10 11 -23 20 -30 20 -6 0 -24 14
-40 30 -16 17 -32 30 -36 30 -12 0 -80 48 -99 70 -9 11 -23 20 -29 20 -7 0
-34 23 -61 50 -27 28 -53 50 -58 50 -5 0 -19 11 -32 25 -13 14 -27 25 -32 25
-5 0 -40 30 -79 68 -39 37 -79 72 -90 77 -10 6 -101 93 -202 193 -161 160
-187 182 -215 182 -23 0 -32 -5 -32 -16 0 -9 -20 -45 -45 -81 -25 -35 -45 -68
-45 -72 0 -4 -9 -16 -20 -26 -11 -10 -20 -23 -20 -29 0 -14 -262 -276 -276
-276 -6 0 -19 -9 -29 -20 -11 -12 -35 -28 -54 -37 -20 -10 -38 -20 -41 -23 -5
-6 -40 -25 -128 -69 -24 -11 -52 -21 -62 -21 -11 0 -22 -4 -25 -10 -3 -5 -17
-10 -30 -10 -13 0 -26 -4 -29 -9 -6 -9 -41 -17 -121 -28 -76 -10 -307 -14
-318 -5 -7 5 -26 7 -44 5 -18 -1 -35 2 -38 7 -3 6 -19 10 -36 10 -16 0 -29 5
-29 10 0 6 -8 10 -18 10 -23 0 -116 46 -132 65 -7 8 -18 15 -24 15 -7 0 -25
14 -41 30 -16 17 -34 30 -41 30 -7 0 -23 14 -36 31 -13 16 -37 47 -54 67 -17
20 -38 53 -47 73 -9 20 -23 42 -32 49 -8 7 -15 19 -15 26 0 8 -4 22 -9 32 -5
9 -14 31 -21 47 -7 17 -16 38 -21 47 -5 10 -9 27 -9 37 0 11 -4 23 -10 26 -5
3 -10 21 -10 40 0 19 -4 36 -10 40 -5 3 -7 12 -3 20 4 11 -2 15 -22 15 -31 0
-54 -24 -55 -57 0 -13 -3 -23 -8 -23 -4 0 -13 -15 -21 -32 -30 -73 -67 -145
-93 -184 -16 -23 -28 -45 -28 -49 0 -20 -285 -325 -304 -325 -5 0 -22 -12 -37
-26 -27 -26 -51 -40 -189 -110 -41 -21 -76 -42 -78 -46 -2 -4 -12 -8 -23 -8
-10 0 -19 -4 -19 -10 0 -5 -11 -10 -24 -10 -14 0 -28 -4 -31 -10 -3 -5 -15
-10 -26 -10 -10 0 -27 -4 -37 -9 -70 -37 -467 -37 -507 0 -5 5 -19 9 -30 9
-12 0 -29 8 -39 19 -16 17 -14 20 24 55 22 20 40 41 40 47 0 6 12 23 28 38 32
32 46 52 73 108 11 23 24 45 28 48 11 6 81 146 81 161 0 16 24 64 33 64 4 0 7
14 7 30 0 17 3 30 8 30 12 0 32 51 32 81 0 15 4 30 9 34 6 3 13 37 17 75 3 39
11 70 15 70 5 0 9 9 9 20 0 15 -7 20 -25 20 -23 0 -25 -4 -25 -44 0 -25 -4
-48 -10 -51 -5 -3 -10 -21 -10 -40 0 -19 -4 -37 -10 -40 -6 -3 -10 -17 -10
-31 0 -13 -4 -24 -10 -24 -5 0 -10 -13 -10 -30 0 -16 -4 -30 -10 -30 -5 0 -10
-9 -10 -20 0 -11 -4 -28 -9 -38 -5 -9 -35 -71 -67 -137 -32 -66 -66 -127 -76
-136 -10 -9 -18 -22 -18 -29 0 -7 -8 -20 -18 -29 -11 -9 -21 -21 -23 -27 -2
-7 -30 -41 -62 -77 -48 -53 -62 -63 -82 -59 -14 2 -25 8 -25 13 0 5 -8 9 -18
9 -10 0 -24 9 -32 20 -8 11 -19 20 -23 20 -5 0 -27 16 -48 35 -22 19 -46 35
-54 35 -13 0 -15 25 -15 164 0 99 4 167 10 171 6 4 10 78 10 191 0 177 -1 184
-20 184 -19 0 -20 -7 -20 -129 0 -81 -4 -132 -11 -136 -6 -5 -10 -64 -8 -172
1 -138 -1 -167 -14 -180 -14 -14 -17 -14 -31 0 -9 8 -16 22 -16 30 0 9 -16 30
-35 48 -19 19 -35 39 -35 46 0 7 -9 18 -20 25 -11 7 -20 21 -20 30 0 10 -4 18
-10 18 -5 0 -10 9 -10 19 0 11 -3 21 -7 23 -12 5 -53 66 -53 77 0 6 -12 36
-27 68 -15 32 -26 65 -24 75 1 9 -3 19 -9 23 -5 3 -10 17 -10 31 0 13 -4 24
-10 24 -15 0 -12 60 3 61 6 1 36 1 65 -1 32 -1 52 2 52 9 0 7 -48 11 -150 11
-93 0 -150 -4 -150 -10 0 -6 -32 -10 -75 -10 -43 0 -75 -4 -75 -10 0 -6 -28
-10 -64 -10 -36 0 -68 -4 -71 -10 -3 -5 -40 -10 -81 -10 -43 0 -74 -4 -74 -10
0 -6 -28 -10 -64 -10 -36 0 -68 -4 -71 -10 -3 -5 -33 -10 -65 -10 -32 0 -62
-4 -65 -10 -3 -5 -39 -10 -80 -10 -41 0 -76 -4 -80 -9 -3 -6 -28 -7 -55 -4
-29 3 -55 1 -62 -5 -7 -5 -38 -12 -68 -13 l-55 -4 -7 45 c-14 89 -20 110 -34
110 -11 0 -14 -16 -14 -65 0 -39 4 -65 11 -65 6 0 9 -10 7 -22 -3 -20 -8 -22
-64 -19 -36 1 -65 -2 -69 -8 -3 -6 -33 -11 -65 -11 -32 0 -62 -4 -65 -10 -3
-5 -40 -10 -81 -10 -43 0 -74 -4 -74 -10 0 -6 -28 -10 -64 -10 -36 0 -68 -4
-71 -10 -3 -5 -35 -10 -70 -10 -35 0 -67 -4 -70 -10 -3 -5 -37 -10 -75 -10
-38 0 -72 -4 -75 -10 -3 -5 -37 -10 -75 -10 -38 0 -72 -4 -75 -10 -3 -5 -34
-10 -69 -10 -34 0 -66 -4 -72 -9 -5 -5 -38 -11 -74 -14 -36 -2 -91 -7 -122
-11 -53 -6 -83 4 -58 19 5 3 10 17 10 30 0 13 5 27 10 30 6 3 10 19 10 35 0
16 5 32 10 35 6 3 10 21 10 40 0 19 5 37 10 40 6 3 10 31 10 61 0 41 -4 54
-15 54 -10 0 -15 -10 -15 -34 0 -19 -4 -38 -10 -41 -5 -3 -10 -26 -10 -51 0
-24 -4 -44 -10 -44 -5 0 -10 -11 -10 -24 0 -14 -5 -28 -10 -31 -6 -3 -10 -16
-10 -29 0 -12 -4 -26 -9 -31 -5 -6 -11 -21 -13 -35 -2 -19 -10 -26 -30 -28
-27 -3 -28 -1 -28 37 0 23 -4 41 -10 41 -6 0 -10 28 -10 64 0 36 -5 68 -10 71
-6 3 -10 35 -10 71 0 62 -1 64 -25 64 -18 0 -25 -5 -25 -20 0 -11 4 -20 9 -20
5 0 12 -35 15 -77 4 -43 8 -100 10 -126 2 -27 9 -54 15 -60 6 -6 11 -19 11
-30 0 -35 -25 -47 -99 -47 -38 0 -73 -4 -76 -10 -3 -5 -35 -10 -71 -10 -36 0
-64 -4 -64 -10 0 -6 -30 -10 -69 -10 -39 0 -73 -4 -76 -10 -3 -5 -35 -10 -70
-10 -35 0 -67 -4 -70 -10 -3 -5 -37 -10 -75 -10 -38 0 -72 -4 -75 -10 -3 -5
-35 -10 -70 -10 -35 0 -67 -4 -70 -10 -3 -5 -33 -10 -65 -10 -32 0 -61 -4 -64
-9 -3 -5 -65 -12 -138 -16 -73 -4 -137 -11 -143 -15 -5 -5 -40 -11 -77 -14
-38 -3 -98 -9 -135 -12 -38 -3 -72 -10 -77 -15 -6 -5 -38 -9 -73 -9 -35 0 -63
-4 -63 -10 0 -5 -21 -10 -46 -10 -40 0 -50 5 -80 38 -18 20 -34 43 -34 50 0 7
-7 15 -15 18 -8 4 -15 15 -15 25 0 10 -4 19 -10 19 -5 0 -10 9 -10 19 0 10 -6
21 -14 24 -15 6 -106 188 -106 212 0 8 -4 17 -10 20 -5 3 -10 17 -10 30 0 13
-4 26 -10 30 -5 3 -7 12 -4 19 3 8 1 17 -5 21 -6 3 -11 16 -11 28 -1 28 -23
57 -44 57 -18 0 -23 -35 -6 -45 5 -3 10 -17 10 -31 0 -13 5 -33 10 -44 5 -11
15 -29 20 -40 6 -11 10 -27 10 -35 0 -8 5 -15 10 -15 6 0 10 -8 10 -19 0 -10
18 -54 41 -97 22 -44 40 -81 41 -84 2 -18 18 -48 32 -59 9 -7 16 -20 16 -27 0
-8 5 -14 10 -14 6 0 10 -7 10 -16 0 -9 14 -29 30 -44 49 -46 41 -60 -34 -60
-36 0 -68 -4 -71 -10 -3 -5 -40 -10 -81 -10 -43 0 -74 -4 -74 -10 0 -6 -28
-10 -64 -10 -36 0 -68 -4 -71 -10 -3 -5 -35 -10 -70 -10 -35 0 -67 -4 -70 -10
-3 -5 -37 -10 -75 -10 -38 0 -72 -5 -75 -11 -4 -6 -29 -8 -61 -6 -30 3 -57 1
-60 -4 -3 -5 -36 -9 -74 -9 -38 0 -72 -4 -75 -10 -3 -5 -35 -10 -70 -10 -35 0
-67 -4 -70 -10 -3 -5 -37 -10 -75 -10 -38 0 -72 -4 -75 -10 -3 -5 -35 -10 -71
-10 -36 0 -64 -4 -64 -10 0 -6 -28 -10 -64 -10 -36 0 -68 -4 -71 -10 -3 -5
-37 -10 -75 -10 -38 0 -72 -4 -75 -10 -3 -5 -35 -10 -70 -10 -35 0 -67 -4 -70
-10 -3 -5 -37 -10 -75 -10 -38 0 -72 -4 -75 -10 -3 -5 -33 -10 -65 -10 -32 0
-61 -4 -64 -9 -3 -4 -65 -11 -138 -15 -73 -4 -137 -12 -142 -17 -6 -5 -38 -9
-72 -9 -35 0 -66 -4 -69 -10 -3 -5 -37 -10 -75 -10 -38 0 -72 -4 -75 -10 -3
-5 -35 -10 -71 -10 -36 0 -64 -4 -64 -10 0 -6 -31 -10 -74 -10 -41 0 -78 -4
-81 -10 -3 -5 -22 -10 -41 -10 l-34 0 0 515 c0 510 0 515 -20 515 -20 0 -20
-5 -20 -511 1 -584 9 -538 -92 -539 -32 0 -58 -4 -58 -10 0 -6 -31 -10 -73
-10 -40 0 -78 -5 -83 -10 -6 -6 -41 -10 -80 -8 -60 3 -69 6 -72 23 -2 11 -10
34 -18 52 -8 17 -14 38 -14 47 0 8 -9 31 -20 51 -11 20 -20 44 -20 55 0 11 -4
20 -10 20 -5 0 -10 9 -10 20 0 11 -4 20 -10 20 -5 0 -10 9 -10 19 0 11 -10 39
-21 63 -12 23 -26 53 -30 66 -9 23 -11 28 -54 126 -14 32 -25 65 -25 72 0 7
-9 29 -20 49 -11 20 -20 42 -20 49 0 8 -14 40 -30 71 -17 31 -30 66 -30 76 0
10 -3 19 -8 19 -4 0 -13 14 -21 31 -13 29 -12 32 15 60 15 16 32 29 37 29 15
0 127 55 127 63 0 4 -20 7 -44 7 -24 0 -46 -3 -48 -7 -4 -10 -127 -73 -142
-73 -18 0 -66 24 -66 33 0 4 -13 7 -30 7 -16 0 -30 5 -30 10 0 6 -9 10 -19 10
-11 0 -21 5 -23 11 -2 6 -26 9 -58 7 l-55 -3 34 -17 c19 -10 40 -18 46 -18 7
0 26 -7 41 -15 16 -8 37 -15 46 -15 9 0 20 -4 23 -10 3 -5 15 -10 26 -10 31 0
22 -26 -15 -44 -19 -9 -39 -16 -45 -16 -6 0 -16 -9 -23 -20 -7 -11 -21 -20
-30 -20 -10 0 -18 -4 -18 -10 0 -5 -9 -10 -20 -10 -11 0 -20 -4 -20 -10 0 -5
-9 -10 -19 -10 -10 0 -21 -6 -24 -13 -3 -8 -49 -36 -104 -64 -192 -99 -228
-118 -231 -125 -5 -12 -250 -10 -257 2 -3 6 -26 10 -50 10 -24 0 -46 4 -49 9
-6 8 -18 11 -108 27 -21 3 -38 10 -38 15 0 5 -8 9 -18 9 -17 0 -60 17 -104 41
-10 5 -25 9 -34 9 -8 0 -35 14 -59 30 -24 17 -48 30 -53 30 -5 0 -17 9 -27 20
-10 11 -23 20 -30 20 -7 0 -20 9 -30 20 -10 11 -24 20 -30 20 -7 0 -28 17 -47
38 -19 21 -39 37 -44 35 -6 -2 -30 19 -54 47 -29 33 -52 50 -67 50 -13 0 -23
-3 -23 -8 0 -4 35 -41 78 -83 89 -87 157 -140 212 -165 8 -4 23 -14 32 -22 26
-22 150 -82 170 -82 10 0 18 -4 18 -10 0 -5 9 -10 20 -10 11 0 20 -4 20 -10 0
-5 11 -10 24 -10 14 0 28 -4 31 -10 3 -5 17 -10 30 -10 13 0 27 -4 30 -10 3
-5 21 -10 40 -10 19 0 37 -5 41 -11 4 -7 21 -9 40 -6 19 3 36 1 39 -4 4 -5 34
-9 69 -9 49 0 67 -4 80 -19 17 -19 16 -20 -26 -41 -73 -36 -186 -97 -215 -117
-15 -10 -41 -25 -58 -33 -16 -8 -32 -17 -35 -20 -3 -3 -21 -13 -40 -23 -19
-10 -68 -36 -109 -57 -72 -39 -124 -50 -136 -30 -3 6 -21 10 -40 10 -19 0 -37
5 -40 10 -3 6 -15 10 -26 10 -10 0 -28 5 -39 10 -11 6 -29 15 -40 20 -11 6
-28 10 -37 10 -10 0 -31 7 -47 15 -15 8 -33 15 -39 15 -16 0 -181 82 -185 92
-2 4 -12 8 -22 8 -10 0 -20 4 -22 8 -1 4 -28 20 -58 36 -80 41 -98 51 -118 69
-10 10 -23 17 -28 17 -6 0 -23 14 -39 30 -16 17 -33 30 -38 30 -17 0 -69 45
-188 159 l-119 115 0 73 c0 71 -1 73 -25 73 -24 0 -25 -2 -23 -70 2 -67 1 -71
-32 -105 -19 -19 -39 -35 -45 -35 -7 0 -20 -9 -30 -20 -10 -11 -23 -20 -30
-20 -7 0 -20 -9 -30 -20 -10 -11 -23 -20 -30 -20 -7 0 -20 -9 -30 -20 -10 -11
-23 -20 -28 -20 -15 0 -161 -73 -165 -82 -2 -4 -12 -8 -23 -8 -10 0 -19 -4
-19 -10 0 -5 -9 -10 -20 -10 -11 0 -20 -3 -20 -7 0 -11 -50 -33 -71 -33 -10 0
-21 -4 -24 -10 -3 -5 -17 -10 -30 -10 -13 0 -27 -4 -30 -10 -3 -5 -17 -10 -30
-10 -13 0 -27 -5 -30 -10 -4 -6 -12 -10 -18 -9 -19 3 -77 -13 -83 -22 -3 -5
-20 -9 -39 -9 -19 0 -37 -4 -40 -10 -3 -5 -31 -10 -61 -10 -30 0 -54 -4 -54
-10 0 -5 -24 -10 -54 -10 -30 0 -58 -4 -61 -10 -4 -6 -98 -10 -250 -10 -152 0
-246 4 -250 10 -3 6 -35 10 -71 10 -36 0 -64 4 -64 10 0 6 -6 10 -13 10 -7 0
-30 18 -52 40 -21 21 -42 37 -47 34 -11 -7 -71 21 -87 40 -10 12 -9 17 8 28
16 10 21 23 21 55 0 23 4 45 10 48 5 3 10 11 10 17 0 20 -39 -24 -45 -51 -3
-14 -21 -43 -40 -65 -29 -32 -38 -36 -50 -26 -8 7 -15 27 -15 46 0 18 -5 36
-10 39 -5 3 -10 14 -10 24 0 21 -22 71 -32 71 -11 0 -10 -48 1 -52 5 -1 11
-23 12 -48 5 -65 -18 -64 -79 1 -32 34 -51 48 -56 41 -4 -7 4 -23 19 -38 21
-20 23 -29 14 -40 -6 -8 -20 -14 -29 -14 -10 0 -20 -6 -23 -12 -4 -10 -7 -10
-18 0 -7 6 -23 12 -35 12 -12 0 -24 4 -26 8 -4 9 -162 87 -198 97 -42 12 -80
29 -80 37 0 5 -9 8 -20 8 -11 0 -20 5 -20 10 0 6 -9 10 -20 10 -11 0 -20 5
-20 10 0 6 -13 10 -30 10 -27 0 -30 3 -30 30 l0 30 125 0 c77 0 125 4 125 10
0 6 35 10 85 10 50 0 85 4 85 10 0 6 28 10 64 10 36 0 68 5 71 10 3 6 26 10
50 10 24 0 47 5 50 10 3 6 24 10 45 10 21 0 42 5 45 10 3 6 26 10 50 10 24 0
47 5 50 10 3 6 21 10 40 10 19 0 36 4 39 9 3 5 15 7 26 4 11 -3 27 1 36 8 9 7
29 12 44 11 16 -1 31 2 35 8 3 5 17 10 30 10 13 0 27 5 30 10 4 6 -22 10 -69
10 -44 0 -76 -4 -76 -10 0 -5 -18 -10 -39 -10 -22 0 -43 -4 -46 -10 -3 -5 -21
-10 -40 -10 -19 0 -37 -4 -40 -10 -3 -5 -24 -10 -45 -10 -21 0 -42 -4 -45 -10
-3 -5 -28 -10 -54 -10 -26 0 -51 -4 -56 -9 -10 -9 -65 -18 -170 -27 -33 -3
-67 -8 -75 -11 -17 -7 -79 -11 -295 -19 -92 -3 -155 -10 -163 -17 -24 -19 -66
-8 -178 49 -59 30 -113 54 -120 54 -15 0 -98 42 -102 53 -8 16 -22 6 -22 -15z
m20726 -46 c12 -23 28 -50 37 -60 9 -9 16 -21 17 -27 5 -25 19 -52 34 -64 9
-7 16 -19 16 -26 0 -6 9 -20 20 -30 11 -10 20 -23 20 -30 0 -7 9 -20 20 -30
11 -10 20 -23 20 -30 0 -6 14 -24 30 -40 17 -16 30 -33 30 -38 0 -13 50 -77
93 -119 22 -22 37 -46 37 -61 0 -25 -25 -83 -40 -92 -5 -3 -17 -23 -26 -43
-10 -20 -24 -45 -32 -55 -17 -19 -36 -51 -51 -83 -5 -11 -25 -34 -45 -52 -20
-17 -36 -36 -36 -42 0 -6 -13 -24 -30 -42 -16 -17 -30 -34 -30 -38 0 -14 -199
-210 -212 -210 -7 0 -19 -9 -26 -20 -10 -16 -22 -20 -57 -18 -25 0 -45 5 -45
10 0 4 -9 8 -20 8 -11 0 -20 3 -20 8 0 7 -47 32 -62 32 -4 0 -17 8 -28 18 -18
15 -120 74 -210 119 -19 10 -42 26 -51 35 -9 10 -24 18 -33 18 -9 0 -16 5 -16
10 0 6 -9 10 -19 10 -10 0 -21 6 -24 14 -3 8 -22 22 -41 31 -35 17 -51 55 -24
55 19 0 155 69 168 85 7 8 19 15 27 15 7 0 16 7 19 15 4 8 14 15 23 15 9 0 23
9 31 20 8 11 20 20 26 20 14 0 194 179 194 192 0 6 14 23 30 38 17 15 30 35
30 44 0 9 4 16 10 16 5 0 18 19 29 43 11 23 31 59 45 80 14 21 26 44 26 51 0
12 14 44 51 118 5 10 9 25 9 33 0 8 5 15 10 15 6 0 10 15 10 34 0 19 5 38 10
41 6 3 7 18 4 32 -11 42 28 24 52 -25z m-6291 -17 c0 -27 4 -56 9 -64 5 -8 8
-65 7 -127 -2 -71 1 -114 8 -119 7 -4 11 -51 11 -125 0 -68 4 -121 10 -125 6
-4 10 -53 10 -115 0 -62 4 -111 10 -115 6 -3 10 -50 10 -105 0 -55 4 -102 10
-105 6 -3 10 -35 10 -71 l0 -64 -38 0 c-21 0 -42 -4 -48 -9 -5 -5 -36 -12 -69
-15 -33 -3 -84 -8 -113 -12 -34 -4 -58 -2 -65 5 -6 6 -37 11 -69 11 -32 0 -58
4 -58 10 0 6 -15 10 -34 10 -19 0 -38 5 -41 10 -3 6 -14 10 -23 10 -9 0 -51
16 -92 36 -41 20 -86 41 -100 47 -14 6 -40 25 -57 42 -27 25 -33 38 -33 72 0
32 -5 46 -20 55 -11 7 -20 18 -20 25 0 15 36 17 45 3 3 -5 19 -10 35 -10 16 0
32 -4 35 -10 3 -5 14 -10 25 -10 20 0 103 -40 108 -52 2 -5 11 -8 20 -8 10 0
23 -9 30 -20 11 -19 42 -28 42 -13 0 12 -43 53 -56 53 -6 0 -17 7 -24 15 -15
18 -68 45 -89 45 -9 0 -29 7 -45 15 -15 8 -50 15 -77 15 -35 0 -49 4 -49 14 0
17 136 29 163 14 10 -5 25 -7 34 -4 12 5 13 9 3 21 -9 11 -33 15 -86 15 -41 0
-74 3 -74 8 0 12 52 32 86 32 18 0 36 5 39 10 3 6 19 10 36 10 16 0 29 5 29
10 0 6 -23 10 -50 10 -28 0 -59 -4 -70 -10 -11 -5 -29 -14 -40 -20 -11 -5 -29
-10 -40 -10 -11 0 -25 -9 -32 -20 -13 -20 -38 -28 -38 -11 0 5 23 30 52 56 45
41 50 49 40 66 -7 10 -12 43 -12 73 0 30 -4 58 -10 61 -5 3 -10 17 -10 30 0
13 -4 27 -10 30 -5 3 -10 16 -10 28 0 12 -7 31 -15 41 -13 18 -15 18 -21 2 -4
-10 -2 -22 5 -29 6 -6 11 -21 11 -34 0 -13 5 -23 10 -23 6 0 10 -24 10 -54 0
-30 5 -58 10 -61 6 -3 10 -21 10 -39 0 -24 -9 -41 -35 -66 -19 -19 -35 -40
-35 -48 0 -15 -24 -42 -37 -42 -4 0 -14 9 -21 20 -13 21 -47 27 -57 10 -9 -15
-25 -12 -25 4 0 7 -7 19 -15 26 -8 7 -29 40 -46 74 -16 33 -38 75 -49 91 -10
17 -19 38 -19 47 -1 10 -10 33 -21 53 -11 20 -20 42 -20 50 0 9 -4 24 -10 35
-5 11 -14 29 -20 40 -5 11 -10 33 -10 49 0 17 -4 33 -10 36 -5 3 -10 26 -10
51 0 24 -4 44 -10 44 -5 0 -10 5 -10 10 0 6 31 10 74 10 41 0 78 5 81 10 3 6
35 10 71 10 36 0 64 4 64 10 0 6 31 10 74 10 41 0 78 5 81 10 3 6 33 10 65 10
32 0 62 5 65 10 3 6 37 10 75 10 38 0 72 5 75 10 3 6 35 10 70 10 35 0 66 4
69 9 3 5 63 12 133 16 84 5 135 12 148 21 11 8 34 13 50 12 29 -3 30 -5 30
-53z m4300 17 c5 -12 16 -22 23 -22 7 0 15 -8 19 -17 7 -23 134 -153 148 -153
6 0 57 -47 115 -105 58 -58 110 -105 115 -105 6 0 36 -27 66 -60 30 -32 60
-59 67 -60 7 0 27 -13 45 -30 63 -58 115 -100 124 -100 5 0 22 -13 38 -30 16
-16 34 -30 40 -30 6 0 22 -12 36 -26 13 -14 33 -30 44 -35 31 -15 61 -33 80
-49 9 -8 26 -19 37 -25 12 -5 28 -20 36 -32 14 -23 14 -23 -36 -23 -28 0 -54
-4 -57 -10 -4 -6 -55 -10 -120 -10 -65 0 -116 4 -120 10 -3 6 -22 10 -41 10
-19 0 -34 5 -34 10 0 6 -11 10 -24 10 -14 0 -28 5 -31 11 -4 6 -13 8 -21 5
-14 -6 -35 4 -101 47 -24 15 -46 27 -50 27 -12 0 -202 193 -218 221 -8 13 -19
34 -24 46 -5 11 -14 24 -20 27 -5 4 -22 32 -37 64 -16 31 -32 59 -36 60 -4 2
-8 12 -8 23 0 10 -9 34 -20 54 -11 20 -20 44 -20 55 0 10 -4 21 -9 24 -10 7
-22 70 -24 136 -1 25 -8 49 -14 53 -14 9 -17 39 -6 51 11 11 27 1 38 -22z
m4894 -32 c13 -17 29 -30 35 -30 7 0 25 -13 41 -30 16 -16 39 -30 51 -30 12 0
27 -7 34 -15 13 -15 133 -75 151 -75 5 0 9 -4 9 -10 0 -5 7 -10 15 -10 9 0 35
-9 57 -20 23 -11 48 -20 55 -20 7 0 22 -4 33 -10 11 -5 29 -14 40 -20 11 -5
31 -10 45 -10 14 0 25 -4 25 -10 0 -5 18 -10 40 -10 22 0 40 -4 40 -10 0 -5
15 -10 34 -10 19 0 38 -4 41 -10 3 -5 26 -10 50 -10 24 0 47 -5 51 -11 4 -8
26 -10 60 -6 30 3 56 1 59 -4 4 -5 65 -9 136 -9 146 0 153 -4 120 -64 -12 -20
-21 -45 -21 -56 0 -11 -4 -20 -10 -20 -5 0 -10 -9 -10 -20 0 -11 -3 -20 -7
-20 -8 0 -33 -47 -33 -62 0 -4 -11 -31 -24 -60 -12 -29 -26 -61 -29 -70 -6
-16 -24 -18 -187 -18 -113 0 -180 4 -180 10 0 6 -28 10 -64 10 -36 0 -68 5
-71 10 -3 6 -24 10 -45 10 -21 0 -42 5 -45 10 -3 6 -21 10 -40 10 -19 0 -37 5
-40 10 -3 6 -17 10 -30 10 -13 0 -27 5 -30 10 -3 6 -17 10 -30 10 -13 0 -27 5
-30 10 -3 6 -14 10 -23 10 -9 0 -30 7 -46 15 -15 8 -35 15 -42 15 -16 0 -49
17 -76 39 -10 7 -46 28 -80 45 l-63 31 -2 263 c-1 144 1 262 5 262 4 0 18 -14
31 -30z m-77 -180 c0 -94 -3 -174 -6 -177 -3 -4 -6 -32 -6 -64 0 -56 -2 -59
-47 -103 -27 -25 -53 -46 -59 -46 -5 0 -23 -13 -39 -30 -16 -16 -35 -30 -42
-30 -8 0 -16 -7 -19 -15 -4 -8 -14 -15 -23 -15 -9 0 -23 -9 -31 -20 -8 -11
-22 -20 -32 -20 -10 0 -18 -4 -18 -10 0 -5 -9 -10 -19 -10 -10 0 -21 -6 -24
-14 -6 -15 -171 -100 -197 -102 -28 -2 -60 -15 -60 -25 0 -5 -9 -9 -20 -9 -11
0 -20 -4 -20 -10 0 -5 -9 -10 -20 -10 -11 0 -35 -9 -55 -20 -20 -11 -49 -20
-65 -20 -16 0 -32 -4 -35 -10 -3 -5 -17 -10 -30 -10 -13 0 -27 -4 -30 -10 -3
-5 -22 -10 -41 -10 -19 0 -34 -4 -34 -10 0 -5 -20 -10 -44 -10 -25 0 -48 -4
-51 -10 -3 -5 -37 -10 -75 -10 -38 0 -72 -4 -75 -10 -4 -6 -58 -10 -130 -10
-72 0 -126 4 -130 10 -3 6 -39 10 -80 10 -41 0 -77 5 -80 10 -3 6 -21 10 -40
10 -19 0 -37 5 -40 10 -3 6 -19 10 -35 10 -16 0 -32 5 -35 10 -3 6 -19 10 -34
10 -33 0 -42 7 -34 26 4 11 28 14 109 13 58 -1 107 -6 110 -10 3 -5 43 -9 90
-9 49 0 84 -4 84 -10 0 -5 15 -10 34 -10 19 0 38 -4 41 -10 3 -5 24 -10 45
-10 21 0 42 5 45 10 3 6 -5 10 -19 10 -14 0 -28 5 -31 10 -3 6 -21 10 -40 10
-19 0 -37 5 -40 10 -3 6 -17 10 -30 10 -13 0 -27 5 -30 10 -3 6 -42 10 -85 10
-46 0 -82 5 -86 11 -4 7 -47 10 -125 7 -75 -2 -119 1 -119 7 -1 6 10 12 22 13
13 2 27 8 32 13 6 5 17 9 26 9 22 0 75 26 90 45 7 8 18 15 25 15 7 0 36 25 64
55 l52 55 79 0 c43 0 82 5 85 10 3 6 30 10 60 10 30 0 57 5 60 10 3 6 28 10
55 10 27 0 52 5 55 10 3 6 21 10 40 10 19 0 37 5 40 10 3 6 17 10 30 10 13 0
27 5 30 11 4 6 13 8 21 5 7 -3 16 -1 19 4 4 6 19 10 35 10 16 0 45 9 65 20 20
11 41 20 48 20 18 0 67 24 67 33 0 4 14 7 30 7 17 0 30 5 30 10 0 6 9 10 19
10 11 0 21 3 23 8 3 7 96 54 179 91 25 11 52 27 59 36 7 8 19 15 26 15 8 0 14
5 14 10 0 6 9 10 20 10 11 0 20 5 20 10 0 6 6 10 14 10 7 0 27 14 44 30 18 17
36 30 41 30 5 0 15 7 22 16 7 9 22 20 34 25 42 20 68 38 103 72 42 39 114 89
120 82 3 -2 4 -81 4 -175z m-17722 135 c0 -8 4 -23 9 -33 5 -9 14 -30 21 -47
7 -16 19 -42 26 -57 8 -14 14 -33 14 -42 0 -8 9 -31 20 -51 11 -20 20 -42 20
-49 0 -12 14 -44 51 -118 5 -10 9 -25 9 -33 0 -8 5 -15 10 -15 6 0 10 -9 10
-20 0 -11 5 -20 10 -20 6 0 10 -9 10 -20 0 -11 9 -35 20 -55 11 -20 20 -43 20
-53 0 -9 7 -30 15 -46 8 -15 15 -34 15 -40 0 -18 24 -66 33 -66 4 0 7 -9 7
-20 0 -11 5 -20 10 -20 6 0 10 -13 10 -30 0 -16 3 -30 8 -30 11 0 34 -57 30
-77 -2 -14 -14 -18 -46 -20 -24 -1 -49 -6 -56 -12 -7 -6 -35 -9 -62 -7 -27 3
-53 1 -59 -4 -5 -4 -41 -11 -80 -14 -38 -4 -99 -9 -135 -12 -36 -3 -69 -10
-74 -15 -6 -5 -40 -9 -77 -9 -37 0 -71 -4 -74 -10 -3 -5 -13 -10 -21 -10 -18
0 -103 85 -123 123 -8 15 -18 27 -23 27 -4 0 -8 9 -8 19 0 10 -6 21 -14 24
-19 8 -106 187 -106 219 0 15 -4 29 -9 32 -15 10 -28 85 -36 213 l-4 72 77 37
c42 21 84 44 93 51 10 8 59 36 110 62 152 78 184 96 187 104 2 4 12 7 23 7 10
0 19 4 19 10 0 5 11 12 25 16 14 3 29 11 33 18 8 12 42 34 55 35 4 1 7 -6 7
-14z m-5330 -76 c0 -5 -7 -9 -15 -9 -15 0 -20 12 -9 23 8 8 24 -1 24 -14z
m2776 -4 c4 -8 1 -22 -6 -30 -8 -9 -9 -20 -4 -27 5 -7 7 -90 4 -183 l-5 -170
-40 -37 c-22 -21 -45 -38 -50 -38 -6 0 -31 -20 -55 -45 -24 -25 -49 -45 -55
-45 -6 0 -27 -18 -48 -40 -20 -22 -42 -40 -49 -40 -7 0 -35 -23 -62 -50 -27
-28 -52 -50 -57 -50 -5 0 -29 -20 -53 -45 -25 -25 -49 -45 -54 -45 -4 0 -26
-18 -47 -41 -22 -22 -55 -47 -73 -56 -32 -15 -34 -15 -126 31 -51 25 -97 46
-102 46 -7 0 -164 74 -236 111 -10 5 -25 9 -33 9 -8 0 -15 5 -15 10 0 6 -8 10
-17 10 -10 0 -27 7 -37 15 -11 8 -27 15 -36 15 -9 0 -70 27 -135 60 -65 33
-127 60 -137 60 -10 0 -18 5 -18 10 0 6 -9 10 -20 10 -11 0 -20 3 -20 8 0 4
-15 13 -32 21 -18 7 -46 20 -62 27 -16 8 -34 14 -41 14 -17 0 -112 49 -125 65
-16 19 6 30 33 17 49 -22 165 -31 424 -33 150 0 278 3 284 7 7 4 35 6 61 5 29
-1 48 2 48 8 0 6 19 11 44 11 25 0 48 5 51 10 3 6 21 10 40 10 19 0 37 5 40
10 3 6 19 10 35 10 16 0 32 5 35 10 3 6 19 10 36 10 16 0 29 5 29 10 0 6 9 10
20 10 11 0 35 9 55 20 20 11 42 20 49 20 8 0 38 13 68 28 30 16 66 32 81 36
15 3 27 11 27 16 0 6 9 10 19 10 11 0 21 4 23 8 2 4 28 20 59 35 32 15 62 34
69 42 7 8 16 15 21 15 5 0 32 16 59 35 27 19 54 35 60 35 5 0 15 9 22 20 15
24 46 26 54 5z m11242 -12 c6 -15 12 -32 12 -37 0 -6 16 -42 36 -81 50 -98 59
-112 77 -133 10 -10 17 -23 17 -28 0 -5 9 -16 20 -24 11 -8 20 -20 20 -27 0
-7 12 -24 26 -38 14 -14 23 -32 20 -40 -3 -9 0 -12 10 -8 8 3 26 -5 39 -17 23
-21 24 -29 24 -136 0 -63 -4 -116 -9 -119 -6 -3 -10 -44 -10 -90 l0 -85 -47
-20 c-27 -11 -56 -25 -65 -30 -10 -6 -24 -10 -31 -10 -18 0 -67 -23 -67 -32 0
-5 -7 -8 -15 -8 -18 0 -21 65 -5 75 7 4 8 11 2 18 -17 21 -26 118 -38 402 -3
66 -9 124 -15 130 -5 5 -9 62 -9 126 0 68 -4 120 -10 124 -11 7 -14 115 -2
115 4 0 13 -12 20 -27z m-11045 -125 c35 -32 69 -58 74 -58 5 0 20 -11 33 -25
13 -14 29 -25 35 -25 7 0 20 -9 30 -20 10 -11 23 -20 30 -20 7 0 20 -9 30 -20
10 -11 24 -20 31 -20 8 0 19 -9 26 -20 7 -11 21 -20 30 -20 10 0 18 -4 18 -10
0 -5 9 -10 20 -10 11 0 20 -4 20 -9 0 -10 137 -81 156 -81 6 0 38 -13 69 -30
31 -16 66 -30 76 -30 10 0 19 -4 19 -10 0 -5 9 -10 19 -10 11 0 23 -4 26 -10
3 -5 19 -10 35 -10 16 0 32 -4 35 -10 3 -5 17 -10 30 -10 13 0 27 -5 30 -10 4
-6 15 -10 24 -8 19 3 51 -18 51 -33 0 -5 -7 -9 -15 -9 -15 0 -82 -34 -100 -51
-12 -12 -52 -11 -60 1 -3 6 -17 10 -31 10 -13 0 -24 5 -24 10 0 6 -11 10 -24
10 -14 0 -28 5 -31 10 -3 6 -19 10 -35 10 -16 0 -32 5 -35 10 -3 6 -19 10 -36
10 -16 0 -29 5 -29 10 0 6 -13 10 -30 10 -16 0 -30 5 -30 10 0 6 -11 10 -24
10 -14 0 -28 5 -31 10 -3 6 -17 10 -30 10 -13 0 -27 5 -30 10 -3 6 -17 10 -30
10 -13 0 -26 4 -29 9 -3 5 -18 11 -33 14 -16 3 -46 11 -68 17 -22 6 -48 11
-57 11 -10 0 -20 4 -23 10 -4 5 -17 9 -30 9 -13 0 -27 5 -30 10 -3 6 -17 10
-30 10 -13 0 -27 5 -30 10 -3 6 -17 10 -30 10 -13 0 -27 5 -30 10 -3 6 -14 10
-24 10 -9 0 -29 6 -44 13 l-27 12 0 196 c0 108 3 198 6 202 3 3 25 -13 49 -36
23 -23 72 -68 108 -99z m9135 28 c2 -27 -2 -54 -7 -59 -6 -6 -11 -39 -11 -73
0 -35 -4 -66 -10 -69 -5 -3 -10 -28 -10 -55 0 -27 -4 -52 -10 -55 -5 -3 -10
-26 -10 -50 0 -24 -4 -47 -10 -50 -5 -3 -10 -26 -10 -51 0 -24 -4 -44 -10 -44
-5 0 -10 -20 -10 -44 0 -25 -4 -48 -10 -51 -5 -3 -10 -21 -10 -40 0 -19 -4
-37 -10 -40 -5 -3 -10 -22 -10 -41 0 -19 -4 -34 -10 -34 -5 0 -10 -15 -10 -34
0 -19 -5 -38 -10 -41 -6 -4 -8 -15 -5 -25 3 -10 1 -21 -5 -25 -5 -3 -10 -17
-10 -30 0 -13 -4 -27 -10 -30 -5 -3 -10 -17 -10 -30 0 -13 -4 -27 -10 -30 -5
-3 -10 -17 -10 -31 0 -13 -4 -24 -10 -24 -5 0 -10 -9 -10 -20 0 -11 -3 -20 -8
-20 -4 0 -14 -15 -21 -32 -20 -45 -48 -85 -95 -135 -30 -33 -48 -43 -71 -43
-45 0 -122 84 -169 185 -21 44 -42 88 -47 97 -5 10 -9 27 -9 38 0 11 -4 20
-10 20 -5 0 -10 9 -10 20 0 11 -4 20 -10 20 -5 0 -10 13 -10 29 0 17 -4 33
-10 36 -5 3 -10 17 -10 30 0 13 -4 27 -10 30 -5 3 -10 19 -10 35 0 16 -4 32
-10 35 -5 3 -10 17 -10 31 0 13 -4 24 -10 24 -5 0 -10 15 -10 34 0 19 -4 38
-10 41 -5 3 -10 21 -10 40 0 19 -4 37 -10 40 -5 3 -10 21 -10 40 0 19 -4 36
-9 40 -5 3 -7 20 -4 39 3 19 1 36 -6 40 -6 4 -11 27 -11 51 0 24 -4 47 -10 50
-5 3 -10 33 -10 67 0 69 23 128 51 128 10 0 21 5 24 10 3 6 37 10 75 10 38 0
72 5 75 10 3 6 35 10 71 10 36 0 64 4 64 10 0 6 30 10 69 10 39 0 73 5 76 10
3 6 35 10 70 10 35 0 67 5 70 10 3 6 37 10 75 10 38 0 72 5 75 11 4 5 23 9 43
7 37 -3 37 -3 40 -52z m-933 -128 c-2 -44 -34 -117 -61 -139 -8 -6 -14 -16
-14 -21 0 -26 -262 -308 -286 -308 -6 0 -18 -8 -27 -18 -9 -10 -32 -24 -52
-32 -19 -8 -35 -17 -35 -22 0 -4 -9 -8 -20 -8 -11 0 -20 -4 -20 -10 0 -5 -9
-10 -20 -10 -11 0 -20 -4 -20 -10 0 -5 -9 -10 -19 -10 -11 0 -23 -4 -26 -10
-3 -5 -19 -10 -35 -10 -16 0 -32 -4 -35 -10 -3 -5 -21 -10 -40 -10 -19 0 -37
-4 -40 -10 -4 -6 -62 -10 -140 -10 -78 0 -136 4 -140 10 -3 6 -26 10 -51 10
-24 0 -44 5 -44 10 0 6 -13 10 -30 10 -16 0 -30 5 -30 10 0 6 -9 10 -20 10
-11 0 -35 9 -55 20 -20 11 -42 20 -50 20 -15 0 -47 15 -75 36 -8 6 -42 26 -75
44 -65 36 -85 52 -85 70 0 6 -8 9 -18 6 -11 -4 -24 3 -37 20 -11 15 -27 29
-36 33 -28 10 -159 142 -153 153 4 6 23 8 45 4 21 -3 40 -2 44 4 3 5 33 10 65
10 32 0 62 5 65 10 3 6 40 10 81 10 43 0 74 4 74 10 0 6 28 10 63 10 35 0 67
4 72 9 9 9 32 12 210 27 39 3 74 10 80 15 5 5 35 9 66 9 32 0 61 5 64 10 3 6
40 10 81 10 43 0 74 4 74 10 0 6 28 10 63 10 35 0 67 4 73 9 10 10 130 22 216
21 31 -1 59 4 63 9 3 6 33 11 65 11 32 0 62 5 65 10 3 6 41 10 84 10 l78 0 -2
-42z m-10625 -64 c0 -17 -22 -14 -28 4 -2 7 3 12 12 12 9 0 16 -7 16 -16z
m4110 -48 c0 -36 5 -68 10 -71 6 -3 10 -26 10 -51 0 -24 5 -44 10 -44 6 0 10
-13 10 -30 0 -16 5 -30 10 -30 6 0 10 -8 10 -19 0 -10 18 -54 41 -97 22 -44
40 -81 41 -84 2 -20 20 -49 42 -69 14 -14 26 -30 26 -36 0 -6 19 -29 42 -50
38 -37 40 -40 20 -43 -12 -2 -22 -8 -22 -13 0 -5 -29 -9 -64 -9 -36 0 -68 -4
-71 -10 -3 -5 -37 -10 -75 -10 -38 0 -72 -4 -75 -10 -3 -5 -35 -10 -70 -10
-35 0 -67 -4 -70 -10 -3 -5 -37 -10 -75 -10 -38 0 -72 5 -75 10 -3 6 -15 10
-27 10 -11 0 -34 10 -51 22 -42 30 -167 155 -167 167 0 6 -9 26 -20 46 -11 20
-20 46 -20 58 0 13 -5 28 -11 34 -13 13 -8 98 6 98 17 1 142 64 153 78 6 7 27
19 47 27 19 7 35 17 35 22 0 4 9 8 20 8 11 0 20 3 20 8 0 4 10 12 23 18 77 38
180 94 193 105 21 18 96 57 112 58 8 1 12 -18 12 -63z m-3772 28 c38 -18 48
-32 34 -46 -7 -7 -17 -5 -32 5 -12 9 -29 13 -36 10 -17 -6 -84 24 -84 37 0 16
84 11 118 -6z m-318 -49 c0 -8 -7 -15 -15 -15 -16 0 -20 12 -8 23 11 12 23 8
23 -8z m301 -28 c-13 -13 -26 -3 -16 12 3 6 11 8 17 5 6 -4 6 -10 -1 -17z
m11961 -46 c15 -32 34 -64 43 -71 8 -7 15 -19 15 -26 0 -8 5 -14 10 -14 6 0
10 -9 10 -20 0 -11 -7 -20 -15 -20 -8 0 -15 4 -15 8 0 5 -11 14 -25 20 -18 9
-25 19 -25 41 0 16 -4 33 -10 36 -5 3 -10 17 -10 30 0 13 -4 27 -10 30 -12 7
-14 45 -2 45 4 0 19 -26 34 -59z m-11852 -50 c47 -23 93 -41 103 -41 9 0 17
-4 17 -10 0 -5 9 -10 20 -10 11 0 20 -4 20 -10 0 -5 9 -10 20 -10 11 0 20 -3
20 -8 0 -6 69 -42 90 -47 44 -10 183 -74 188 -87 2 -5 16 -8 32 -8 16 0 30 -3
32 -8 4 -10 170 -92 187 -92 18 0 125 -51 129 -62 2 -4 12 -8 23 -8 10 0 19
-4 19 -10 0 -5 13 -10 29 -10 16 0 31 -3 33 -7 2 -5 30 -22 63 -38 53 -27 60
-34 63 -64 2 -18 -1 -38 -7 -44 -6 -6 -11 -26 -11 -43 0 -18 -4 -35 -9 -38 -5
-3 -12 -23 -15 -43 -6 -38 -10 -58 -22 -121 -3 -18 -10 -35 -15 -38 -5 -3 -9
-19 -9 -36 0 -38 -25 -68 -56 -68 -13 0 -26 -4 -29 -10 -3 -5 -21 -10 -40 -10
-19 0 -37 -5 -41 -11 -4 -7 -20 -9 -40 -6 -21 4 -37 1 -44 -8 -7 -9 -23 -12
-44 -8 -20 3 -36 1 -40 -6 -4 -6 -25 -11 -47 -11 -21 0 -39 -4 -39 -10 0 -5
-20 -10 -44 -10 -25 0 -48 -4 -51 -10 -3 -5 -26 -10 -51 -10 -24 0 -44 -4 -44
-10 0 -5 -18 -10 -40 -10 -22 0 -40 -4 -40 -10 0 -5 -20 -10 -44 -10 -25 0
-48 -4 -51 -10 -3 -5 -22 -10 -41 -10 -19 0 -34 -4 -34 -9 0 -6 -18 -9 -40 -8
-39 1 -50 10 -30 22 6 3 10 15 10 25 0 11 9 35 20 55 11 20 20 46 20 60 0 13
5 27 10 30 6 3 10 26 10 50 0 24 5 47 10 50 6 4 10 67 10 155 0 88 -4 151 -10
155 -5 3 -10 26 -10 50 0 24 -4 47 -10 50 -5 3 -10 17 -10 30 0 13 -4 27 -10
30 -5 3 -10 17 -10 31 0 13 -4 24 -10 24 -5 0 -10 9 -10 20 0 11 -4 20 -10 20
-5 0 -10 9 -10 19 0 11 -3 21 -7 23 -5 2 -21 29 -38 61 -16 32 -38 66 -47 74
-10 9 -18 21 -18 28 0 6 -36 47 -80 89 -44 43 -78 82 -75 86 3 5 31 -4 63 -20
31 -15 95 -46 142 -69z m-370 41 c0 -27 7 -45 21 -58 12 -10 25 -29 30 -41 5
-13 15 -23 24 -23 8 0 15 -4 15 -10 0 -5 11 -10 24 -10 14 0 28 -4 31 -10 7
-12 35 -14 35 -2 0 4 -15 13 -32 21 -42 17 -85 57 -103 95 -20 40 -19 59 3 52
9 -3 29 0 43 8 26 13 29 12 98 -58 39 -39 71 -76 71 -82 0 -6 14 -23 30 -39
17 -16 30 -34 30 -41 0 -6 7 -17 15 -24 20 -17 95 -175 95 -200 0 -11 5 -20
10 -20 6 0 10 -11 10 -24 0 -14 5 -28 10 -31 6 -3 10 -30 10 -60 0 -30 5 -57
10 -60 6 -4 10 -57 10 -125 0 -68 -4 -121 -10 -125 -5 -3 -10 -26 -10 -50 0
-24 -4 -47 -10 -50 -5 -3 -10 -19 -10 -35 0 -16 -5 -32 -10 -35 -5 -3 -10 -17
-10 -30 0 -13 -5 -27 -11 -30 -6 -4 -8 -13 -5 -21 8 -21 -26 -76 -60 -94 -25
-15 -127 -33 -176 -32 -10 1 -20 -3 -23 -9 -4 -5 -21 -9 -40 -9 -19 0 -37 -4
-40 -10 -3 -5 -26 -10 -51 -10 -24 0 -44 -4 -44 -10 0 -5 -20 -10 -44 -10 -25
0 -48 -4 -51 -10 -3 -5 -21 -10 -40 -10 -19 0 -37 -4 -40 -10 -3 -5 -26 -10
-51 -10 -24 0 -44 -4 -44 -10 0 -5 -9 -10 -20 -10 -11 0 -20 2 -20 5 0 7 38
63 62 90 9 11 18 25 19 30 3 22 34 85 41 85 5 0 8 9 8 20 0 11 5 20 10 20 6 0
10 9 10 20 0 11 5 20 10 20 6 0 10 11 10 24 0 14 5 28 10 31 6 3 10 17 10 30
0 13 5 27 10 30 6 3 10 17 10 30 0 13 4 27 10 30 5 3 10 22 10 41 0 19 5 34
10 34 6 0 10 20 10 44 0 25 5 48 10 51 6 3 10 34 10 69 0 34 3 65 6 68 10 10
4 532 -6 542 -26 26 4 86 42 86 14 0 18 -8 18 -38z m22430 -153 c0 -166 -1
-179 -18 -179 -10 0 -31 -13 -47 -30 -16 -16 -33 -30 -38 -30 -8 0 -115 -67
-127 -80 -15 -15 -51 -29 -65 -24 -9 4 -15 1 -15 -7 0 -13 -16 -22 -85 -48
-11 -5 -40 -18 -63 -30 -24 -11 -52 -21 -63 -21 -10 0 -19 -4 -19 -10 0 -5
-13 -10 -29 -10 -17 0 -33 -5 -36 -11 -4 -6 -13 -8 -20 -5 -8 3 -19 -1 -25 -9
-7 -9 -22 -12 -40 -9 -15 4 -31 1 -34 -5 -4 -6 -22 -11 -41 -11 -19 0 -37 -4
-40 -10 -3 -5 -33 -10 -65 -10 -32 0 -62 -4 -65 -10 -4 -6 -93 -10 -236 -10
-146 0 -229 4 -229 10 0 6 -28 10 -64 10 -36 0 -68 5 -71 10 -3 6 -19 10 -34
10 -35 0 -82 23 -101 50 -8 11 -21 20 -30 20 -8 0 -30 18 -49 40 -19 22 -40
40 -45 40 -14 1 -116 96 -116 108 0 5 7 16 17 23 13 11 17 11 20 2 3 -7 15
-13 28 -13 13 0 27 -4 30 -10 3 -5 22 -10 41 -10 19 0 34 -4 34 -10 0 -5 20
-10 44 -10 25 0 48 -4 51 -10 3 -5 30 -10 60 -10 30 0 57 -4 60 -10 4 -6 78
-10 191 -10 116 0 184 4 184 10 0 6 28 10 64 10 36 0 68 5 71 10 3 6 21 10 40
10 19 0 37 5 40 10 3 6 22 10 41 10 19 0 34 5 34 10 0 6 15 10 34 10 19 0 38
5 41 10 4 6 14 10 23 8 10 -1 32 5 51 15 19 9 42 17 52 17 10 0 21 5 24 10 3
6 17 10 31 10 13 0 24 5 24 10 0 6 9 10 19 10 11 0 21 3 23 8 2 4 44 27 93 51
50 25 100 54 113 65 13 12 24 20 25 18 4 -7 54 17 66 32 7 9 20 16 27 16 8 0
19 9 26 20 7 11 20 20 28 20 9 0 22 9 30 20 8 11 20 20 27 20 7 0 29 18 49 40
20 22 40 37 45 34 5 -3 9 -86 9 -185z m90 176 c15 -18 150 -85 173 -85 9 0 17
-4 17 -10 0 -5 9 -10 20 -10 11 0 20 -4 20 -10 0 -5 7 -10 15 -10 8 0 24 -4
35 -10 11 -5 29 -14 40 -20 11 -5 33 -10 49 -10 17 0 33 -4 36 -10 3 -5 17
-10 30 -10 13 0 27 -5 30 -10 4 -6 22 -9 40 -6 19 3 37 1 40 -4 3 -6 30 -10
60 -10 30 0 57 -4 60 -10 4 -6 80 -10 196 -10 156 0 189 -2 189 -14 0 -17 -42
-100 -52 -104 -5 -2 -8 -12 -8 -22 0 -10 -3 -20 -7 -22 -9 -4 -44 -63 -80
-135 l-25 -53 -49 0 c-26 0 -51 -4 -54 -10 -4 -6 -65 -10 -150 -10 -85 0 -146
4 -150 10 -3 6 -31 10 -61 10 -30 0 -54 5 -54 10 0 6 -13 10 -29 10 -16 0 -46
8 -68 19 -21 10 -49 24 -63 30 -14 6 -47 25 -75 41 -27 16 -57 32 -65 36 -8 4
-34 27 -57 50 l-43 42 0 181 c0 147 3 181 14 181 7 0 19 -7 26 -15z m-2450
-48 c0 -6 23 -34 50 -63 53 -56 57 -65 38 -86 -35 -38 -49 -90 -28 -103 6 -3
10 -13 10 -22 0 -23 40 -63 62 -63 10 0 18 -7 18 -15 0 -12 -17 -15 -94 -15
-53 0 -98 4 -101 10 -3 6 -26 10 -51 10 -24 0 -44 5 -44 10 0 6 -8 10 -18 10
-32 0 -82 30 -82 49 0 10 9 26 20 36 11 10 20 23 20 30 0 6 12 22 26 36 14 13
35 42 45 64 29 57 44 82 61 102 8 10 18 26 22 37 6 18 7 18 26 1 11 -10 20
-23 20 -28z m105 12 c5 -5 21 -9 35 -9 38 0 90 -28 100 -54 4 -12 15 -28 24
-35 9 -7 16 -22 16 -32 0 -20 -15 -25 -25 -9 -3 6 -30 10 -58 10 -48 1 -54 3
-77 36 -14 20 -34 45 -45 57 -50 55 -50 58 -14 51 19 -4 38 -11 44 -15z
m-17915 1 c0 -5 13 -10 29 -10 17 0 33 -4 36 -10 3 -5 19 -10 35 -10 16 0 32
-4 35 -10 3 -5 17 -10 31 -10 13 0 24 -4 24 -10 0 -5 14 -10 30 -10 17 0 30
-4 30 -10 0 -5 11 -10 24 -10 14 0 28 -4 31 -10 3 -5 17 -10 30 -10 13 0 27
-4 30 -10 3 -5 21 -10 40 -10 19 0 37 -4 40 -10 3 -5 17 -10 30 -10 13 0 26
-4 30 -10 3 -5 12 -7 19 -4 8 3 17 1 21 -5 3 -6 17 -11 30 -11 13 0 27 -4 30
-10 3 -5 17 -10 30 -10 13 0 27 -4 30 -10 3 -5 17 -10 30 -10 13 0 27 -4 30
-10 3 -5 22 -10 41 -10 19 0 34 -4 34 -10 0 -5 9 -10 19 -10 42 0 34 -26 -14
-50 -16 -8 -38 -20 -47 -28 -15 -13 -69 -42 -238 -128 -30 -16 -61 -34 -68
-41 -7 -7 -17 -13 -22 -13 -5 0 -15 -6 -22 -12 -22 -21 -56 -38 -75 -38 -9 0
-25 -7 -35 -17 -21 -19 -41 -30 -124 -72 -34 -17 -67 -38 -74 -46 -7 -8 -19
-15 -26 -15 -8 0 -14 -4 -14 -10 0 -5 -9 -10 -20 -10 -11 0 -20 -3 -20 -8 0
-11 -58 -34 -70 -27 -6 4 -10 141 -10 396 l0 389 30 0 c17 0 30 -4 30 -10z
m-90 -13 c0 -8 -2 -16 -5 -19 -10 -10 -10 -668 0 -673 6 -3 5 -7 -2 -11 -15
-7 -17 -34 -3 -34 6 0 10 -7 10 -15 0 -10 -10 -15 -33 -15 -34 0 -87 20 -87
33 0 4 -9 7 -19 7 -11 0 -21 3 -23 8 -4 10 -87 52 -102 52 -7 0 -34 11 -62 24
-99 49 -185 86 -199 86 -8 0 -15 3 -15 8 0 8 -49 32 -67 32 -24 0 -13 30 25
65 20 19 41 35 46 35 9 0 71 53 154 130 23 22 46 40 50 40 5 0 35 25 67 55 33
30 63 55 68 55 5 0 26 18 47 40 21 22 42 40 47 40 5 0 24 16 43 35 35 36 60
45 60 22z m11613 -67 c14 -16 33 -30 41 -30 9 0 16 -4 16 -9 0 -5 25 -21 55
-37 30 -16 55 -33 55 -38 0 -13 -101 -106 -114 -106 -6 0 -18 -9 -26 -20 -8
-11 -19 -20 -26 -20 -6 0 -19 -9 -29 -20 -10 -11 -22 -20 -27 -20 -12 0 -10
34 4 48 8 8 11 54 9 147 -1 80 2 135 8 135 5 0 21 -13 34 -30z m6633 16 c20
-21 20 -126 -1 -126 -9 0 -15 9 -15 23 0 28 -28 87 -41 87 -5 0 -9 7 -9 15 0
19 46 20 66 1z m49 4 c4 -6 73 -10 176 -10 93 0 169 -2 169 -5 0 -10 -75 -74
-87 -75 -7 0 -13 -4 -13 -10 0 -5 -9 -10 -19 -10 -11 0 -21 -3 -23 -7 -4 -11
-87 -53 -104 -53 -8 0 -23 -4 -34 -10 -11 -5 -29 -14 -40 -20 -11 -5 -21 -10
-23 -10 -2 0 -5 42 -6 92 -1 51 -6 97 -11 102 -6 6 -10 14 -10 18 0 11 18 10
25 -2z m-17078 -171 c-3 -26 0 -42 9 -50 8 -6 11 -15 8 -21 -8 -12 45 -118 62
-125 8 -3 14 -12 14 -19 0 -27 124 -134 154 -134 9 0 16 -7 16 -15 0 -9 -9
-15 -24 -15 -14 0 -28 -4 -31 -10 -3 -5 -36 -10 -72 -10 -66 0 -103 16 -103
45 0 6 -13 24 -30 40 -16 16 -30 34 -30 40 0 7 -9 20 -20 30 -11 10 -20 24
-20 32 0 7 -7 16 -15 19 -8 4 -15 14 -15 23 0 9 -9 23 -20 31 -11 8 -20 21
-20 28 0 8 -10 22 -22 32 l-23 19 25 23 c31 29 142 86 154 80 4 -2 6 -22 3
-43z m-196 -91 c10 -13 18 -28 19 -34 0 -6 9 -19 20 -29 11 -10 20 -24 20 -31
0 -8 9 -19 20 -26 11 -7 20 -20 20 -28 0 -9 9 -22 20 -30 11 -8 20 -21 20 -30
0 -8 9 -21 20 -28 11 -7 20 -18 20 -26 0 -7 9 -21 20 -31 27 -25 14 -38 -31
-31 -21 3 -40 2 -44 -4 -3 -5 -35 -10 -70 -10 -35 0 -67 -4 -70 -10 -3 -5 -37
-10 -75 -10 -38 0 -72 -4 -75 -10 -3 -5 -35 -10 -71 -10 -36 0 -64 -4 -64 -10
0 -6 -28 -10 -64 -10 -36 0 -68 -4 -71 -10 -3 -5 -37 -10 -75 -10 -38 0 -72
-4 -75 -10 -3 -5 -37 -10 -75 -10 -38 0 -71 -4 -75 -10 -7 -11 -113 -11 -120
0 -6 9 7 17 112 69 34 18 65 36 68 41 3 5 43 27 88 50 116 58 161 84 165 93 2
4 12 7 23 7 10 0 19 5 19 10 0 6 9 10 20 10 11 0 20 5 20 10 0 6 6 10 14 10 7
0 19 7 26 15 7 8 49 33 94 56 115 57 160 83 164 92 6 13 24 7 43 -15z m17389
-9 c0 -5 -9 -9 -20 -9 -22 0 -27 16 -7 23 15 5 27 -1 27 -14z m-614 -55 c30
-4 57 -11 60 -15 3 -5 57 -9 120 -9 63 0 114 -3 114 -7 0 -16 -46 -53 -66 -53
-13 0 -26 -4 -29 -10 -3 -5 -15 -10 -26 -10 -10 0 -19 -4 -19 -10 0 -5 -17
-10 -38 -10 -39 0 -92 -19 -92 -32 0 -5 16 -8 35 -8 19 0 35 5 35 10 0 6 23
10 50 10 28 0 59 5 70 12 32 20 35 1 6 -42 -14 -22 -26 -43 -26 -47 0 -5 -18
-32 -40 -61 -22 -29 -40 -56 -40 -60 0 -4 -32 -39 -70 -77 -78 -77 -81 -78
-157 -40 -26 14 -58 25 -70 25 -13 0 -23 5 -23 10 0 6 -9 10 -20 10 -11 0 -20
5 -20 10 0 6 -9 10 -20 10 -11 0 -20 3 -20 8 0 8 -48 32 -64 32 -23 0 -146 66
-146 78 0 17 25 42 42 42 8 0 34 20 58 45 24 25 48 45 53 45 12 0 37 26 37 39
0 5 25 33 55 62 30 28 55 57 55 62 0 6 7 18 16 28 15 16 19 16 71 -12 30 -16
80 -32 109 -35z m2462 -109 c1 -66 7 -124 12 -129 18 -18 12 -56 -9 -56 -11 0
-26 -9 -33 -19 -8 -11 -26 -25 -41 -32 -15 -7 -27 -16 -27 -21 0 -4 -7 -8 -16
-8 -9 0 -24 -8 -33 -18 -9 -10 -34 -26 -56 -36 -22 -9 -57 -26 -78 -37 -22
-10 -47 -19 -57 -19 -11 0 -22 -4 -25 -10 -3 -5 -17 -10 -30 -10 -13 0 -27 -4
-30 -10 -3 -5 -22 -10 -41 -10 -19 0 -34 -4 -34 -10 0 -6 -28 -10 -64 -10 -36
0 -68 -4 -71 -10 -4 -6 -60 -10 -135 -10 -75 0 -131 4 -135 10 -3 6 -42 10
-85 10 -43 0 -82 5 -85 10 -3 6 -31 10 -61 10 -30 0 -54 5 -54 10 0 6 -15 10
-32 11 -18 0 -55 14 -83 30 -27 15 -59 32 -70 38 -12 5 -27 16 -34 25 -7 9
-19 16 -26 16 -6 0 -20 9 -30 20 -10 11 -25 20 -32 20 -19 0 -11 24 9 28 9 2
23 -4 31 -13 12 -12 40 -15 126 -15 62 0 112 -4 116 -10 3 -5 17 -10 30 -10
13 0 27 5 30 10 4 6 58 10 130 10 72 0 126 4 130 10 3 6 28 10 56 10 27 0 49
5 49 10 0 6 20 10 44 10 25 0 48 5 51 10 3 6 17 10 30 10 13 0 27 5 30 10 3 6
17 10 30 10 13 0 27 5 30 10 3 6 17 10 31 10 13 0 24 5 24 10 0 6 11 10 24 10
14 0 28 5 31 10 3 6 15 10 25 10 11 0 35 9 55 20 19 11 38 19 40 19 14 -1 162
77 176 93 9 10 23 18 30 18 8 0 21 9 29 20 8 11 19 20 26 20 6 0 19 9 29 20
10 12 26 19 34 18 13 -3 16 -24 19 -123z m93 90 c17 -19 48 -43 68 -52 20 -9
44 -23 53 -31 26 -22 109 -62 129 -62 10 0 20 -4 24 -10 3 -5 12 -7 19 -4 8 3
17 1 21 -5 3 -6 25 -11 49 -11 23 0 47 -5 52 -10 13 -13 380 -9 407 4 25 12
23 -26 -3 -49 -11 -10 -20 -23 -20 -30 0 -7 -10 -20 -21 -31 -12 -10 -29 -31
-38 -45 -9 -14 -33 -45 -53 -69 l-38 -43 -132 2 c-74 1 -138 7 -145 13 -7 6
-28 7 -47 4 -20 -4 -37 -2 -41 4 -3 5 -17 10 -30 10 -14 0 -40 9 -60 20 -20
11 -41 20 -49 20 -15 0 -98 41 -122 61 -9 7 -26 18 -38 24 -20 10 -21 18 -24
168 -1 86 0 157 3 157 3 0 19 -16 36 -35z m-2151 -25 c0 -11 5 -20 10 -20 6 0
10 -20 10 -44 0 -25 5 -48 10 -51 6 -4 10 -57 10 -125 0 -68 -4 -121 -10 -125
-5 -3 -10 -23 -10 -43 0 -54 22 -25 28 38 2 28 9 53 13 56 13 7 11 214 -1 214
-5 0 -10 14 -10 30 0 20 5 30 15 30 8 0 15 -7 15 -15 0 -9 11 -33 25 -55 14
-22 25 -44 25 -50 0 -5 5 -10 10 -10 6 0 10 -8 10 -19 0 -10 13 -29 30 -42 16
-13 30 -31 30 -39 0 -9 9 -22 20 -30 11 -8 20 -20 20 -28 0 -7 14 -25 30 -39
42 -34 40 -42 -23 -140 -15 -24 -27 -46 -27 -51 0 -4 -22 -29 -48 -55 -44 -44
-49 -46 -67 -32 -11 8 -30 15 -42 15 -12 0 -24 4 -28 10 -3 5 -12 7 -19 4 -8
-3 -17 -1 -21 5 -3 6 -17 11 -30 11 -13 0 -27 5 -30 10 -3 6 -17 10 -30 10
-13 0 -27 5 -30 10 -3 6 -17 10 -30 10 -13 0 -27 5 -30 10 -3 6 -17 10 -31 10
-13 0 -24 5 -24 10 0 6 -9 10 -20 10 -11 0 -20 5 -20 10 0 6 -13 10 -30 10
-16 0 -30 5 -30 10 0 6 -13 10 -30 10 -16 0 -30 2 -30 5 0 3 18 21 40 41 22
20 40 42 40 48 0 7 18 30 40 51 22 21 40 44 40 50 0 7 9 20 20 30 11 10 36 52
57 94 21 42 41 78 45 79 4 2 8 10 8 19 0 16 23 43 38 43 5 0 17 9 27 20 10 11
22 20 27 20 4 0 8 -9 8 -20z m120 -8 c0 -5 34 -35 76 -68 42 -32 93 -76 115
-96 21 -21 45 -38 54 -38 11 0 15 -11 15 -40 0 -22 -4 -40 -10 -40 -5 0 -10
-9 -10 -20 0 -11 -4 -20 -10 -20 -5 0 -10 -9 -10 -20 0 -11 -2 -20 -5 -20 -8
0 -66 68 -65 75 1 4 -9 19 -23 33 -14 15 -28 36 -31 48 -3 11 -14 29 -24 40
-10 10 -30 45 -46 77 -15 32 -34 61 -42 64 -19 7 -18 33 1 33 8 0 15 -4 15 -8z
m-6800 -42 c0 -16 -4 -30 -10 -30 -6 0 -10 -40 -10 -99 0 -56 -4 -103 -10
-106 -5 -3 -10 -44 -10 -91 0 -49 -4 -84 -10 -84 -6 0 -10 -28 -10 -64 0 -36
-4 -68 -10 -71 -5 -3 -10 -26 -10 -50 0 -24 -4 -47 -10 -50 -5 -3 -10 -16 -10
-27 0 -20 -1 -21 -20 -3 -12 11 -20 31 -20 51 0 18 -4 36 -10 39 -5 3 -10 26
-10 50 0 24 -4 47 -10 50 -5 3 -10 33 -10 65 0 32 -4 62 -10 65 -5 3 -10 35
-10 71 0 36 -4 64 -10 64 -6 0 -10 29 -10 68 1 69 14 102 42 102 18 0 141 61
146 73 2 4 10 7 18 7 9 0 14 -11 14 -30z m-12130 -82 c25 -13 47 -26 48 -30 2
-5 12 -8 23 -8 10 0 19 -4 19 -10 0 -5 8 -10 18 -10 10 0 72 -27 137 -60 65
-33 127 -60 137 -60 10 0 18 -4 18 -10 0 -5 7 -10 16 -10 9 0 30 -7 47 -16 18
-9 39 -20 47 -24 8 -4 16 -14 18 -22 2 -12 -13 -17 -77 -22 -45 -4 -83 -12
-86 -17 -4 -5 -26 -9 -50 -9 -24 0 -47 -4 -50 -10 -3 -5 -21 -10 -40 -10 -19
0 -37 -4 -40 -10 -3 -5 -26 -10 -51 -10 -24 0 -44 -4 -44 -10 0 -5 -20 -10
-45 -10 -25 0 -45 -4 -45 -10 0 -5 -18 -10 -40 -10 -22 0 -40 -4 -40 -10 0 -5
-18 -10 -40 -10 -33 0 -40 3 -40 19 0 11 5 23 10 26 6 3 10 22 10 41 0 19 5
34 10 34 6 0 10 15 10 34 0 19 5 38 10 41 6 3 10 21 10 40 0 19 5 37 10 40 6
3 10 22 10 41 0 19 5 34 11 34 6 0 10 12 9 28 -4 61 -4 61 60 30z m17740 -75
c0 -7 -5 -13 -10 -13 -24 0 -92 48 -85 60 7 11 94 -33 95 -47z m40 -19 c0 -9
-5 -14 -12 -12 -18 6 -21 28 -4 28 9 0 16 -7 16 -16z m4067 -11 c12 -29 23
-169 22 -290 0 -39 5 -74 10 -78 6 -3 11 -35 11 -70 0 -35 5 -67 10 -70 6 -3
10 -28 10 -55 0 -27 5 -52 10 -55 6 -3 10 -21 10 -40 0 -19 5 -37 10 -40 6 -3
10 -17 10 -30 0 -13 5 -27 10 -30 6 -3 10 -17 10 -31 0 -13 5 -24 10 -24 6 0
10 -11 10 -24 0 -14 5 -28 10 -31 6 -3 10 -15 10 -25 0 -10 13 -45 29 -77 16
-32 42 -85 57 -118 16 -33 32 -61 36 -63 4 -2 8 -11 8 -19 0 -9 8 -23 18 -32
16 -16 42 -55 42 -66 0 -9 -59 -5 -65 5 -3 6 -33 10 -65 10 -32 0 -62 5 -65
10 -3 6 -26 10 -51 10 -37 0 -44 3 -44 19 0 10 -13 45 -30 76 -16 31 -30 63
-30 71 0 7 -8 28 -18 46 -18 32 -35 81 -37 105 0 6 -4 15 -8 19 -4 4 -7 18 -7
30 0 13 -4 26 -10 29 -5 3 -10 21 -10 40 0 19 -4 37 -10 40 -5 3 -10 17 -10
31 0 13 -4 24 -10 24 -5 0 -10 18 -10 40 0 22 -4 40 -10 40 -5 0 -10 15 -10
34 0 19 -4 38 -10 41 -5 3 -10 21 -10 40 0 19 -4 37 -10 40 -5 3 -10 26 -10
50 0 24 -4 47 -10 50 -5 3 -10 41 -10 83 0 66 3 79 20 90 11 7 20 18 20 25 0
7 18 31 40 52 22 21 40 44 40 50 0 6 11 22 25 35 14 13 25 32 25 42 0 27 24
22 37 -9z m-2577 -43 c0 -10 116 -91 180 -126 21 -11 46 -27 55 -34 10 -8 27
-19 39 -25 18 -9 21 -20 24 -89 2 -46 -2 -84 -8 -90 -5 -5 -10 -23 -10 -38 0
-15 -4 -28 -10 -28 -5 0 -10 -9 -10 -19 0 -11 -5 -23 -10 -26 -6 -4 -8 -15 -5
-26 8 -23 -20 -38 -38 -20 -6 6 -28 11 -48 11 -21 0 -41 5 -44 10 -3 6 -17 10
-30 10 -13 0 -27 5 -30 10 -3 6 -21 10 -40 10 -19 0 -37 5 -40 10 -3 6 -22 10
-41 10 -19 0 -34 5 -34 10 0 6 -13 10 -30 10 -16 0 -30 5 -30 10 0 6 -10 10
-23 10 -26 0 -77 21 -77 33 0 4 5 7 10 7 6 0 10 6 10 13 0 8 10 23 23 35 13
12 33 42 45 66 12 24 29 49 37 56 8 7 15 19 15 26 0 24 16 15 50 -26 29 -36
60 -53 60 -33 0 4 -21 28 -46 54 -43 43 -45 48 -32 70 7 13 17 27 22 30 5 4 6
14 3 23 -3 8 -2 18 3 21 6 4 10 15 10 26 0 14 7 19 25 19 14 0 25 -4 25 -10z
m1862 -120 c10 0 18 -4 18 -10 0 -5 11 -10 24 -10 14 0 28 -4 31 -10 3 -5 26
-10 50 -10 24 0 47 -4 50 -10 4 -6 60 -10 136 -10 71 0 129 -3 129 -6 0 -7
-41 -55 -133 -156 -59 -64 -88 -81 -102 -58 -3 6 -28 10 -55 10 -27 0 -52 5
-55 10 -3 6 -17 10 -30 10 -14 0 -49 11 -79 25 -30 14 -58 25 -62 25 -4 0 -20
12 -35 26 -15 15 -38 32 -51 38 -21 10 -23 19 -26 89 -2 42 -7 77 -12 77 -6 0
-10 15 -10 34 l0 34 97 -49 c53 -27 104 -49 115 -49z m-252 75 c7 -9 10 -36 7
-77 -3 -46 0 -68 10 -80 17 -19 10 -38 -14 -38 -9 0 -30 -16 -47 -35 -29 -33
-173 -115 -202 -115 -8 0 -14 -4 -14 -10 0 -5 -13 -10 -30 -10 -16 0 -30 -4
-30 -10 0 -5 -15 -10 -34 -10 -19 0 -38 -4 -41 -10 -4 -6 -70 -10 -166 -10
-99 0 -159 4 -159 10 0 6 -18 10 -40 10 -22 0 -40 5 -40 10 0 6 -7 10 -16 10
-8 0 -59 21 -112 46 -145 68 -184 89 -186 99 -2 14 125 18 137 6 15 -15 383
-15 393 0 4 7 20 8 41 4 22 -4 40 -2 50 7 9 7 28 11 44 10 16 -2 29 1 29 7 0
6 11 11 24 11 14 0 28 5 31 10 3 6 14 10 23 10 17 0 215 95 242 117 8 7 26 21
40 32 30 24 44 26 60 6z m-20120 -30 c0 -8 -4 -15 -9 -15 -13 0 -22 16 -14 24
11 11 23 6 23 -9z m17420 -55 c0 -5 9 -10 20 -10 11 0 20 -4 20 -10 0 -5 10
-10 23 -11 30 -1 82 -32 82 -50 0 -7 -10 -18 -22 -25 -13 -6 -31 -17 -40 -25
-42 -34 -72 -43 -98 -29 -23 12 -25 19 -25 80 0 38 5 71 12 78 15 15 28 16 28
2z m-17680 -38 c0 -14 -23 -32 -40 -32 -9 0 -25 -9 -35 -20 -10 -11 -23 -20
-30 -20 -7 0 -20 -9 -30 -20 -10 -11 -23 -20 -28 -20 -6 0 -19 -7 -29 -17 -20
-18 -50 -36 -86 -52 -12 -6 -25 -18 -28 -26 -4 -8 -14 -15 -23 -15 -9 0 -23
-9 -31 -20 -8 -11 -21 -20 -30 -20 -9 0 -22 -9 -30 -20 -8 -11 -20 -20 -26
-20 -6 0 -18 -7 -25 -16 -7 -9 -22 -20 -34 -25 -34 -16 -64 -35 -83 -52 -10
-10 -23 -17 -29 -17 -5 0 -18 -9 -28 -20 -10 -11 -22 -20 -27 -20 -4 0 -8 70
-8 155 0 147 1 155 19 155 11 0 22 4 25 9 3 5 23 11 43 15 95 14 119 19 129
28 7 5 24 7 38 4 14 -3 28 0 31 5 4 5 26 9 51 9 24 0 44 5 44 10 0 6 23 10 50
10 28 0 50 5 50 10 0 6 15 10 34 10 19 0 38 5 41 10 3 6 24 10 45 10 21 0 42
5 45 10 7 12 35 13 35 2z m19200 -107 c7 -8 19 -15 26 -15 8 0 14 -4 14 -10 0
-5 9 -10 19 -10 11 0 21 -3 23 -8 2 -4 57 -34 123 -67 l120 -60 3 -68 c2 -42
-1 -67 -8 -67 -5 0 -10 -8 -10 -19 0 -15 -8 -19 -54 -20 -30 0 -58 4 -61 9 -3
6 -24 10 -45 10 -21 0 -42 5 -45 10 -3 6 -24 10 -46 10 -21 0 -39 5 -39 10 0
6 -20 10 -44 10 -25 0 -48 5 -51 11 -4 5 -21 9 -38 7 -27 -2 -33 1 -35 20 -2
12 1 22 7 22 6 0 11 9 11 20 0 11 9 36 21 57 14 25 19 47 16 70 -3 18 -1 35 4
38 5 4 9 21 9 39 0 18 3 35 6 38 7 8 58 -18 74 -37z m1910 -31 c0 -36 4 -64
10 -64 6 0 10 -20 10 -44 0 -25 5 -48 10 -51 6 -3 10 -26 10 -50 0 -24 4 -46
9 -50 5 -3 13 -30 16 -60 4 -31 11 -58 16 -61 5 -3 9 -16 9 -29 0 -13 5 -27
10 -30 6 -3 10 -17 10 -30 0 -13 5 -27 10 -30 6 -3 10 -19 10 -35 0 -16 9 -45
20 -65 11 -20 20 -44 20 -55 0 -11 5 -20 10 -20 6 0 10 -9 10 -20 0 -11 9 -35
20 -55 11 -20 20 -44 20 -54 0 -11 5 -21 12 -23 6 -2 8 -10 4 -17 -8 -13 -63
-6 -80 10 -6 5 -20 9 -32 9 -13 0 -25 4 -28 9 -3 5 -15 7 -26 4 -14 -4 -22 1
-29 20 -5 14 -15 28 -20 32 -6 3 -20 27 -31 53 -12 26 -30 64 -40 85 -11 22
-20 47 -20 58 0 10 -4 19 -10 19 -5 0 -10 14 -10 30 0 17 -4 30 -10 30 -5 0
-10 11 -10 24 0 14 -4 28 -10 31 -5 3 -10 14 -10 25 0 10 -9 35 -19 57 -10 21
-24 58 -31 83 -7 25 -16 53 -21 62 -16 31 -10 77 11 90 11 7 20 17 20 23 0 15
143 163 153 158 4 -2 7 -33 7 -69z m-21140 58 c0 -5 -10 -17 -21 -28 -12 -10
-25 -29 -30 -41 -5 -13 -15 -23 -24 -23 -8 0 -15 -4 -15 -10 0 -5 -27 -37 -60
-71 -33 -33 -60 -64 -60 -68 0 -5 -34 -42 -75 -84 -41 -42 -75 -81 -75 -86 0
-6 -11 -22 -25 -36 -27 -26 -59 -33 -70 -15 -3 6 -17 10 -31 10 -13 0 -24 5
-24 10 0 6 -9 10 -19 10 -11 0 -23 5 -26 10 -3 6 -18 10 -31 10 -30 0 -28 20
4 36 12 6 30 18 40 27 10 10 23 17 29 17 5 0 18 9 28 20 10 11 23 20 30 20 7
0 20 9 30 20 10 11 23 20 28 20 6 0 19 7 29 17 20 18 50 36 86 52 12 6 25 18
28 26 4 8 14 15 24 15 10 0 20 4 22 8 3 8 110 86 150 108 11 7 25 17 31 23 13
13 27 14 27 3z m20432 -80 c-2 -16 2 -33 7 -37 6 -3 11 -23 11 -44 0 -39 -20
-68 -40 -56 -5 3 -10 2 -10 -4 0 -13 -99 -61 -115 -55 -7 3 -16 1 -20 -5 -3
-6 -22 -11 -41 -11 -19 0 -34 -4 -34 -10 0 -5 -24 -10 -54 -10 -30 0 -58 -4
-61 -10 -3 -5 -24 -10 -46 -10 -21 0 -39 5 -39 10 0 6 -10 10 -23 10 -13 0
-28 5 -34 11 -5 5 -25 12 -43 14 -19 3 -38 9 -44 15 -5 5 -23 10 -38 10 -18 0
-28 5 -28 15 0 17 41 20 70 5 13 -7 21 -7 25 0 3 5 39 10 80 10 41 0 77 5 80
10 3 6 21 10 40 10 19 0 36 4 40 10 3 5 12 7 19 4 8 -3 17 -1 21 5 3 6 14 11
24 11 22 0 116 47 131 65 7 8 18 15 25 15 6 0 20 9 29 19 10 11 24 17 32 14 9
-3 14 1 14 12 0 9 6 15 13 12 7 -2 11 -17 9 -35z m-21112 -152 c0 -153 -2
-171 -17 -177 -10 -3 -26 -13 -36 -21 -19 -17 -50 -36 -82 -51 -12 -5 -27 -16
-34 -25 -7 -9 -19 -16 -25 -16 -6 0 -18 -9 -26 -20 -8 -11 -21 -20 -29 -20 -7
0 -21 -8 -30 -18 -18 -21 -50 -36 -68 -33 -7 1 -20 -10 -29 -24 -9 -14 -22
-25 -28 -25 -7 0 -23 -11 -36 -25 -13 -14 -29 -25 -35 -25 -7 0 -20 -9 -30
-20 -10 -11 -24 -20 -32 -20 -7 0 -13 -4 -13 -10 0 -5 -7 -10 -15 -10 -10 0
-15 10 -15 29 0 17 -5 33 -11 36 -6 4 -9 21 -8 39 2 17 -2 41 -9 52 -6 12 -9
23 -7 26 3 2 -11 35 -30 73 -44 88 -173 222 -222 231 -45 8 -44 34 1 34 19 0
38 5 41 10 3 6 26 10 50 10 24 0 47 5 50 10 3 6 26 10 50 10 24 0 47 5 50 10
3 6 17 7 30 4 12 -3 26 -1 29 5 4 6 27 11 51 11 24 0 47 5 50 10 3 6 21 10 40
10 19 0 37 5 40 10 3 6 26 10 51 10 24 0 44 5 44 10 0 6 20 10 44 10 25 0 48
5 51 10 3 6 22 10 41 10 19 0 34 5 34 10 0 6 20 10 44 10 25 0 48 5 51 10 19
31 25 -5 25 -160z m21210 153 c41 -29 153 -83 171 -83 10 0 20 -4 23 -9 3 -4
31 -11 62 -14 31 -3 59 -8 62 -11 7 -7 -16 -53 -42 -83 -17 -21 -26 -22 -70
-17 -28 4 -56 11 -62 16 -7 5 -16 8 -20 7 -27 -5 -79 18 -118 52 -40 35 -44
44 -48 92 -6 74 -1 80 42 50z m-2092 -87 c5 -21 -34 -22 -55 0 -13 13 -14 17
-3 24 18 11 54 -4 58 -24z m1232 -76 c0 -5 9 -10 19 -10 11 0 21 -5 23 -12 2
-6 13 -12 24 -13 10 0 34 -9 53 -18 19 -9 42 -17 52 -17 10 0 21 -4 24 -10 3
-5 17 -10 31 -10 13 0 24 -4 24 -10 0 -5 8 -10 19 -10 29 0 47 -28 33 -51 -7
-10 -12 -26 -12 -34 0 -17 -35 -21 -45 -5 -3 6 -33 10 -65 10 -32 0 -62 5 -65
10 -3 6 -35 10 -71 10 -36 0 -64 4 -64 10 0 6 -18 10 -40 10 -38 0 -52 12 -30
25 6 3 10 28 10 54 0 39 4 52 23 64 25 18 57 22 57 7z m798 -52 c-3 -56 -5
-63 -33 -79 -16 -10 -40 -18 -52 -18 -12 -1 -25 -5 -28 -11 -3 -5 -35 -10 -71
-10 -36 0 -64 4 -64 10 0 6 -11 10 -24 10 -14 0 -28 5 -31 10 -3 6 -15 10 -26
10 -21 0 -26 16 -6 23 6 2 26 2 43 0 17 -3 35 0 38 6 4 6 18 11 31 11 13 0 27
5 30 10 3 6 14 10 24 10 20 0 144 60 149 73 2 4 8 7 13 7 6 0 9 -27 7 -62z
m442 32 c0 -16 5 -30 10 -30 6 0 10 -15 10 -34 0 -19 5 -38 10 -41 6 -3 10
-15 10 -25 0 -11 9 -35 20 -55 11 -20 20 -44 20 -55 0 -10 5 -22 11 -26 6 -3
9 -15 6 -25 -3 -10 -1 -22 4 -25 5 -3 9 -16 9 -30 0 -13 5 -24 10 -24 6 0 10
-9 10 -20 0 -11 5 -20 10 -20 6 0 10 -8 10 -18 0 -24 26 -76 45 -92 18 -15 19
-30 2 -30 -18 0 -67 24 -67 33 0 4 -7 7 -16 7 -23 0 -77 58 -97 105 -10 22
-22 48 -27 57 -6 10 -10 27 -10 37 0 11 -4 23 -10 26 -5 3 -10 17 -10 30 0 13
-4 27 -10 30 -5 3 -10 21 -10 40 0 19 -4 37 -10 40 -5 3 -10 28 -10 55 0 42 5
55 32 85 40 43 48 44 48 5z m-372 -10 c7 -11 23 -20 36 -20 14 0 28 -4 31 -10
3 -5 17 -10 30 -10 13 0 27 -4 30 -10 3 -5 22 -10 41 -10 41 0 42 -3 9 -35
-54 -55 -195 -15 -195 56 0 15 -5 31 -10 34 -11 7 -4 25 8 25 4 0 13 -9 20
-20z m-22141 -25 c28 -15 57 -33 63 -40 7 -8 17 -15 23 -15 15 0 107 -91 107
-106 0 -6 7 -17 15 -24 18 -15 65 -109 65 -131 0 -10 5 -21 10 -24 6 -3 10
-42 10 -86 0 -75 -2 -82 -27 -104 -16 -13 -32 -25 -37 -25 -7 0 -28 -15 -83
-60 -7 -6 -18 -10 -25 -10 -8 0 -20 -9 -28 -20 -8 -11 -21 -20 -30 -20 -8 0
-21 -9 -28 -20 -7 -11 -18 -20 -26 -20 -7 0 -20 -7 -27 -16 -7 -9 -22 -20 -34
-25 -34 -16 -64 -35 -83 -52 -27 -24 -72 -22 -72 3 0 11 -9 35 -20 55 -11 20
-20 41 -20 48 0 11 -22 57 -65 138 -5 11 -13 19 -17 19 -5 0 -8 7 -8 16 0 9
-13 29 -30 44 -16 15 -30 32 -30 37 0 12 -139 153 -151 153 -6 0 -24 14 -39
30 -15 17 -34 30 -42 30 -7 0 -19 9 -25 19 -7 11 -26 22 -42 26 -17 4 -33 11
-36 16 -4 5 -15 9 -26 9 -10 0 -19 7 -19 15 0 11 12 15 44 15 25 0 48 5 51 10
4 6 23 11 43 10 55 0 121 11 128 21 3 5 25 9 50 9 24 0 44 5 44 10 0 6 15 10
34 10 19 0 38 5 41 10 3 6 26 10 50 10 24 0 47 5 50 10 3 6 22 10 41 10 19 0
34 5 34 10 0 6 20 10 44 10 25 0 48 5 51 10 9 14 15 13 72 -15z m20583 -10 c7
-9 10 -19 6 -22 -8 -9 -38 9 -44 25 -5 17 23 15 38 -3z m1823 -105 c4 -25 7
-57 7 -72 0 -15 4 -29 10 -33 5 -3 10 -17 10 -30 0 -13 5 -27 10 -30 6 -3 10
-17 10 -31 0 -13 3 -24 8 -24 10 0 36 -60 28 -67 -3 -4 -17 7 -31 23 -14 16
-25 25 -25 19 0 -15 -91 78 -102 105 -6 14 -10 32 -9 41 1 9 -5 22 -14 29 -23
19 -18 36 22 80 46 51 66 49 76 -10z m-697 5 c12 -8 39 -15 60 -17 31 -2 39
-7 39 -23 0 -17 -8 -20 -49 -23 -27 -2 -54 2 -59 7 -6 6 -28 11 -49 11 -35 0
-38 2 -38 28 0 16 3 32 7 36 9 9 62 -2 89 -19z m404 -34 c0 -29 -3 -31 -34
-31 -19 0 -38 5 -41 10 -3 6 -19 10 -36 10 -39 0 -41 30 -1 31 15 0 40 8 57
18 36 21 55 9 55 -38z m-1008 24 c0 -5 -5 -11 -11 -13 -6 -2 -11 4 -11 13 0 9
5 15 11 13 6 -2 11 -8 11 -13z m1098 -7 c17 -2 25 -9 25 -23 0 -28 -52 -34
-62 -8 -4 10 -11 21 -16 24 -5 4 -6 12 -2 18 4 8 11 9 18 2 7 -5 23 -11 37
-13z m-21217 -10 c15 -7 27 -16 27 -20 0 -5 14 -8 30 -8 17 0 30 -4 30 -10 0
-5 10 -10 23 -10 12 0 31 -7 42 -16 20 -15 19 -15 -12 -43 -18 -16 -33 -33
-33 -38 0 -4 -34 -42 -75 -83 -41 -41 -75 -79 -75 -84 0 -5 -33 -44 -72 -86
-40 -42 -81 -89 -91 -103 -21 -32 -44 -34 -92 -7 -20 11 -42 20 -49 20 -8 0
-31 8 -53 19 -72 35 -114 51 -133 51 -10 0 -22 5 -25 10 -3 6 -15 10 -26 10
-27 0 -25 38 4 51 35 16 65 34 85 52 10 10 23 17 29 17 5 0 18 9 28 20 10 11
23 20 30 20 7 0 20 9 30 20 10 11 24 20 30 20 7 0 19 7 26 16 7 9 22 20 34 25
30 13 58 32 76 52 9 9 23 17 30 17 8 0 21 9 29 20 8 11 22 20 31 20 9 0 19 6
22 14 5 12 49 41 68 45 3 1 17 -5 32 -11z m20957 -44 c0 -17 -22 -14 -28 4 -2
7 3 12 12 12 9 0 16 -7 16 -16z m328 -31 c25 -55 11 -69 -28 -28 -19 20 -21
27 -10 40 17 21 23 19 38 -12z m-422 -2 c5 -6 74 -11 154 -13 l145 -3 3 -59
c2 -32 -2 -64 -7 -69 -7 -7 -11 -83 -11 -208 0 -185 -1 -200 -22 -241 -13 -23
-26 -44 -30 -46 -5 -2 -8 -12 -8 -23 0 -10 -4 -19 -10 -19 -5 0 -10 -9 -10
-20 0 -11 -4 -20 -9 -20 -5 0 -12 -8 -15 -17 -9 -25 -30 -60 -49 -81 -10 -10
-17 -23 -17 -27 0 -5 -17 -26 -37 -47 -44 -45 -88 -52 -102 -15 -5 13 -16 29
-25 36 -11 10 -13 17 -6 26 7 8 4 17 -10 30 -11 10 -20 26 -20 36 0 10 -5 21
-11 25 -6 3 -9 19 -7 35 3 17 -1 34 -9 40 -9 8 -11 24 -7 49 4 23 2 40 -5 44
-6 4 -11 31 -11 61 0 30 -4 57 -10 60 -5 3 -10 33 -10 65 0 32 -4 62 -10 65
-5 3 -10 39 -10 80 0 41 -4 77 -10 80 -5 3 -10 46 -10 96 l0 89 93 0 c51 0 97
-4 103 -9z m414 -81 c14 0 40 -25 40 -39 0 -6 -9 -11 -19 -11 -11 0 -27 -10
-35 -21 -24 -34 -46 -17 -46 35 0 25 -5 46 -12 48 -6 2 -8 10 -4 16 5 9 15 7
36 -8 15 -11 33 -20 40 -20z m107 -75 c17 -9 36 -22 43 -30 7 -8 19 -15 26
-15 8 0 14 -4 14 -10 0 -5 -8 -10 -18 -10 -24 0 -76 -26 -92 -45 -7 -8 -19
-15 -26 -15 -8 0 -14 -7 -14 -16 0 -8 -7 -22 -15 -30 -13 -14 -17 -14 -30 0
-8 8 -15 26 -15 40 0 14 -4 26 -10 26 -35 0 17 75 74 106 28 16 29 16 63 -1z
m200 -120 c37 -19 74 -35 81 -35 6 0 12 -4 12 -10 0 -5 9 -10 20 -10 25 0 27
-38 3 -47 -49 -17 -101 -44 -113 -58 -7 -8 -17 -15 -23 -15 -15 0 -127 -111
-127 -126 0 -6 -7 -17 -15 -24 -13 -10 -19 -10 -35 5 -11 10 -20 22 -20 27 0
4 -11 31 -25 60 -17 34 -25 69 -25 103 0 46 4 54 38 85 49 46 75 60 111 60 17
0 33 5 36 10 8 13 5 14 82 -25z m-357 -45 c0 -16 5 -32 10 -35 14 -9 12 -52
-2 -57 -29 -11 -38 4 -38 61 0 32 3 61 6 64 12 12 24 -4 24 -33z m-21800 -42
c14 -6 33 -14 42 -19 10 -5 25 -9 33 -9 8 0 15 -4 15 -10 0 -5 7 -10 15 -10 8
0 34 -9 58 -19 47 -22 89 -36 98 -33 4 0 14 -7 24 -18 17 -18 16 -20 -14 -46
-17 -14 -31 -31 -31 -38 0 -6 -32 -43 -71 -81 -39 -39 -74 -77 -77 -86 -10
-24 -149 -168 -156 -161 -8 7 -8 537 0 545 6 6 22 2 64 -15z m-117 -256 c0
-144 -3 -265 -7 -269 -3 -4 -38 26 -76 65 -39 40 -77 72 -85 72 -8 0 -18 6
-22 13 -9 14 -48 37 -63 37 -6 0 -30 9 -52 20 -23 11 -54 20 -68 20 -25 0 -50
16 -50 32 0 4 6 8 13 8 8 0 24 12 38 26 13 14 40 33 59 41 19 9 43 23 53 31
19 17 51 36 85 51 12 6 25 18 28 26 4 8 14 15 23 15 9 0 23 9 31 20 8 11 19
20 26 20 6 0 19 9 29 20 10 11 23 19 28 17 5 -1 9 -112 10 -265z m22542 218
c3 -5 17 -10 31 -10 13 0 24 -4 24 -10 0 -5 11 -10 24 -10 33 0 76 -17 76 -30
0 -5 -8 -10 -17 -10 -19 0 -103 -78 -103 -95 0 -6 -16 -26 -35 -45 -19 -19
-35 -39 -35 -46 0 -6 -7 -17 -15 -24 -8 -7 -27 -37 -42 -69 -15 -31 -31 -57
-35 -59 -4 -2 -8 -12 -8 -23 0 -10 -4 -19 -10 -19 -5 0 -10 -11 -10 -24 0 -14
-4 -28 -10 -31 -5 -3 -10 -21 -10 -40 0 -19 -5 -37 -10 -40 -6 -4 -8 -15 -5
-25 3 -10 1 -21 -5 -25 -15 -9 -40 13 -40 35 0 10 -6 20 -14 23 -8 3 -20 18
-28 34 -42 80 -61 114 -68 118 -5 3 -21 31 -36 63 -16 31 -32 59 -36 60 -19 8
12 89 38 99 8 3 14 11 14 19 0 17 61 84 76 84 6 0 19 9 29 20 21 23 112 70
136 70 10 0 21 5 24 10 3 6 26 10 50 10 24 0 47 -4 50 -10z m-570 -73 c8 -17
15 -38 15 -49 0 -10 5 -18 10 -18 6 0 10 -9 10 -20 0 -11 5 -20 10 -20 6 0 10
-9 10 -20 0 -11 3 -20 8 -20 8 0 32 -48 32 -65 0 -7 -7 -26 -15 -42 -19 -37
-86 -61 -106 -37 -6 8 -17 14 -23 14 -25 0 -36 56 -36 175 0 67 3 124 6 128 3
3 19 5 35 5 22 -1 33 -8 44 -31z m834 -1 c7 -5 36 -10 65 -12 103 -7 166 -16
166 -23 0 -5 -9 -16 -20 -26 -11 -10 -20 -23 -20 -30 0 -7 -9 -20 -20 -30 -11
-10 -20 -23 -20 -30 0 -7 -8 -19 -18 -28 -9 -8 -26 -38 -37 -66 -11 -28 -23
-51 -27 -51 -4 0 -8 -9 -8 -20 0 -11 -4 -20 -10 -20 -5 0 -10 -9 -10 -20 0
-11 -4 -20 -10 -20 -5 0 -10 -11 -10 -24 0 -14 -4 -28 -10 -31 -5 -3 -10 -17
-10 -30 0 -13 -4 -27 -10 -30 -5 -3 -10 -22 -10 -41 0 -19 -4 -34 -10 -34 -5
0 -10 -18 -10 -39 0 -22 -4 -43 -10 -46 -5 -3 -10 -37 -10 -75 0 -38 -5 -72
-10 -75 -17 -10 -10 -176 7 -197 10 -11 11 -18 4 -23 -6 -3 -46 31 -88 77 -43
45 -97 100 -120 122 -24 21 -43 44 -43 51 0 6 -16 26 -35 45 -19 19 -35 40
-35 47 0 7 -9 18 -20 25 -15 10 -20 24 -20 60 0 26 5 50 10 53 6 3 10 21 10
40 0 19 4 36 9 39 7 5 20 46 25 81 3 21 46 102 61 115 8 7 15 18 15 25 0 6 9
20 20 30 11 10 20 23 20 29 0 6 41 52 92 103 75 75 97 92 118 90 14 -2 32 -7
39 -11z m-23244 -206 c3 -5 19 -10 35 -10 16 0 32 -4 35 -10 3 -5 14 -10 24
-10 21 0 71 -22 71 -32 0 -5 9 -8 20 -8 11 0 20 -4 20 -10 0 -5 7 -10 16 -10
8 0 22 -6 30 -12 7 -7 43 -38 78 -68 49 -42 65 -61 65 -82 1 -21 6 -28 21 -28
29 0 25 -11 -20 -55 -22 -21 -40 -44 -40 -50 0 -6 -34 -44 -75 -85 -41 -41
-75 -78 -75 -83 0 -4 -34 -42 -75 -84 -41 -42 -75 -80 -75 -85 0 -11 -42 -58
-52 -58 -4 0 -8 24 -8 54 0 30 -4 58 -10 61 -5 3 -10 22 -10 41 0 19 -4 34
-10 34 -5 0 -10 12 -10 26 0 15 -8 34 -18 43 -11 9 -21 21 -23 28 -6 16 -113
126 -138 141 -11 6 -30 17 -41 22 -11 6 -29 15 -40 20 -11 6 -42 10 -70 10
-27 0 -50 4 -50 10 0 5 -13 7 -30 4 -23 -5 -30 -3 -30 10 0 9 8 16 17 16 9 0
25 7 35 17 19 17 49 36 83 52 12 5 27 16 34 25 7 9 20 16 27 16 8 0 19 9 26
20 7 11 20 20 28 20 9 0 22 9 30 20 8 11 20 20 28 20 14 0 18 3 72 49 35 31
92 42 105 21z m5175 -10 c0 -5 -4 -10 -10 -10 -5 0 -10 5 -10 10 0 6 5 10 10
10 6 0 10 -4 10 -10z m17377 -82 c11 -13 27 -40 37 -60 9 -20 21 -40 26 -43 6
-3 19 -25 29 -48 11 -23 31 -53 45 -66 14 -14 26 -30 26 -37 0 -7 8 -19 18
-26 30 -23 40 -50 28 -72 -19 -33 -75 -86 -91 -86 -8 0 -15 -4 -15 -10 0 -5
-11 -10 -24 -10 -14 0 -28 -4 -31 -10 -3 -5 -21 -10 -40 -10 -19 0 -37 5 -40
10 -3 6 -15 10 -25 10 -35 0 -90 40 -90 65 0 13 -4 27 -10 30 -5 3 -10 26 -10
51 0 24 -4 44 -10 44 -6 0 -10 31 -10 73 0 41 -3 77 -7 81 -11 11 -15 96 -4
96 5 0 13 -4 16 -10 16 -26 129 3 142 36 7 19 16 18 40 -8z m-22877 -260 c22
-7 40 -16 40 -20 0 -3 13 -9 28 -13 69 -15 192 -185 192 -265 0 -21 5 -42 10
-45 12 -8 13 -102 1 -109 -5 -3 -7 -15 -4 -25 3 -13 -2 -24 -16 -33 -12 -7
-21 -18 -21 -25 0 -7 -33 -46 -72 -88 -134 -138 -218 -231 -218 -241 0 -5 -38
-47 -85 -94 -47 -47 -85 -89 -85 -95 0 -16 -65 -77 -73 -69 -4 4 -7 38 -7 76
0 39 -4 68 -10 68 -5 0 -10 20 -10 44 0 25 -4 48 -10 51 -5 3 -10 17 -10 30 0
13 -4 27 -10 30 -5 3 -10 16 -11 28 0 12 -9 36 -20 52 -10 17 -22 37 -26 45
-10 23 -132 140 -146 140 -7 0 -18 9 -24 19 -7 11 -26 22 -42 26 -17 4 -33 11
-36 16 -4 5 -17 9 -30 9 -13 0 -27 5 -30 10 -3 6 -21 10 -40 10 -19 0 -37 5
-40 10 -3 6 -30 10 -59 10 -29 0 -55 3 -59 6 -7 7 46 54 60 54 6 0 18 9 28 20
10 11 23 20 30 20 7 0 20 9 30 20 10 11 22 20 27 20 5 0 28 12 51 28 69 44 81
52 105 62 12 5 25 17 28 25 4 8 14 15 23 15 9 0 23 9 31 20 8 11 21 20 30 20
8 0 21 9 28 20 7 11 18 20 26 20 7 0 20 7 27 16 7 9 22 20 34 26 11 5 45 22
75 38 50 26 65 29 153 30 53 0 115 -6 137 -12z m23161 -160 c19 -22 67 -76
107 -118 39 -42 72 -81 72 -86 0 -4 36 -45 80 -89 l81 -81 -16 -31 c-8 -17
-22 -36 -30 -43 -8 -7 -15 -18 -15 -24 0 -15 -82 -96 -97 -96 -6 0 -16 -7 -23
-15 -16 -19 -109 -65 -132 -65 -10 0 -18 -4 -18 -10 0 -5 -24 -10 -54 -10 -30
0 -58 -4 -61 -10 -9 -14 -109 -12 -123 2 -7 7 -12 20 -12 30 0 10 -4 18 -10
18 -5 0 -10 9 -10 20 0 11 -9 35 -20 55 -11 20 -20 44 -20 55 0 10 -4 22 -10
25 -5 3 -10 19 -10 36 0 16 -4 37 -9 47 -27 53 -33 73 -28 91 3 12 1 24 -4 27
-5 3 -9 16 -9 29 0 13 -4 27 -10 30 -5 3 -10 22 -10 41 0 19 -4 34 -9 34 -10
0 -23 69 -15 81 3 5 16 2 30 -7 13 -9 24 -13 24 -10 0 4 10 1 22 -5 27 -14
126 -15 140 -1 6 6 16 8 22 6 6 -2 21 5 33 16 12 11 27 20 33 20 16 0 40 26
40 42 0 14 19 38 30 38 3 0 22 -19 41 -42z m-455 -115 c-10 -10 -19 5 -10 18
6 11 8 11 12 0 2 -7 1 -15 -2 -18z m27 -91 c-2 -17 2 -34 7 -37 6 -3 10 -17
10 -30 0 -13 5 -27 10 -30 6 -3 10 -22 10 -41 0 -19 5 -34 10 -34 6 0 10 -13
10 -30 0 -16 5 -30 10 -30 6 0 10 -11 10 -24 0 -14 5 -28 10 -31 6 -3 10 -17
10 -30 0 -13 9 -44 20 -70 17 -41 20 -69 20 -215 0 -102 -4 -171 -10 -175 -5
-3 -10 -15 -10 -26 0 -10 -6 -19 -14 -19 -13 0 -20 30 -30 128 -2 18 -6 35
-10 39 -3 3 -6 30 -6 59 0 29 -4 56 -10 59 -5 3 -10 30 -10 60 0 30 -4 57 -10
60 -5 3 -10 37 -10 76 0 39 -4 69 -10 69 -6 0 -10 31 -10 74 0 41 -4 78 -10
81 -15 10 -13 158 3 152 7 -2 11 -17 10 -35z m-21969 -1039 c-2 -132 -8 -219
-14 -221 -6 -2 -10 -10 -10 -18 0 -8 -4 -14 -10 -14 -5 0 -10 8 -10 18 0 9 -9
28 -20 42 -11 14 -20 31 -20 38 0 6 -5 12 -11 12 -17 0 -6 158 13 195 9 17 30
60 47 98 17 37 33 67 35 67 2 0 2 -98 0 -217z m152 2 c27 -57 21 -100 -23
-184 -40 -76 -63 -99 -63 -62 0 12 -4 21 -10 21 -11 0 -14 359 -3 399 6 25 9
21 99 -174z m22314 -169 c0 -16 7 -27 19 -31 11 -3 22 -19 26 -34 3 -16 15
-37 26 -47 10 -9 19 -23 19 -31 0 -8 9 -23 20 -35 10 -11 26 -36 35 -54 8 -18
20 -36 25 -39 24 -15 40 -72 40 -146 0 -43 5 -81 10 -84 6 -4 10 -115 10 -300
0 -185 -4 -296 -10 -300 -5 -3 -10 -26 -10 -51 0 -36 -3 -44 -18 -44 -11 0
-27 9 -37 20 -10 11 -14 20 -10 20 5 0 4 5 -3 12 -7 7 -12 22 -12 35 0 13 -4
23 -10 23 -5 0 -10 14 -10 30 0 17 -4 30 -10 30 -5 0 -10 15 -10 34 0 19 -4
38 -10 41 -5 3 -10 26 -10 50 0 24 -4 47 -10 50 -5 3 -10 28 -10 55 0 27 -4
52 -10 55 -5 3 -10 40 -10 81 0 43 -4 74 -10 74 -6 0 -10 42 -10 105 0 59 -4
105 -9 105 -6 0 -12 51 -15 113 -3 61 -8 151 -12 200 -5 75 -3 87 10 87 10 0
16 -9 16 -24z m-1300 -2281 c0 -264 -2 -305 -15 -305 -10 0 -15 -10 -15 -30 0
-36 -15 -38 -41 -7 -27 31 -61 106 -54 117 3 6 -1 10 -9 10 -9 0 -16 9 -16 20
0 11 -4 20 -8 20 -12 0 -32 47 -32 75 0 14 5 25 10 25 6 0 10 14 10 30 0 17 5
30 10 30 6 0 10 9 10 20 0 11 4 28 9 38 22 40 41 86 41 99 0 15 18 49 41 78 9
11 22 35 30 53 8 17 17 32 21 32 5 0 8 -137 8 -305z"/>
<path d="M970 9126 c0 -16 28 -42 36 -33 7 6 -18 47 -28 47 -5 0 -8 -6 -8 -14z"/>
</g>
</svg>
